<svg display="none" xmlns="http://www.w3.org/2000/svg">

    <symbol id="pointer" viewBox="0 0 59 80" fill="none">
        <path d="M29.1233 0C13.0631 0 0 13.0658 0 29.1233C0 44.4951 25.9515 77.055 27.0556 78.4344C27.5586 79.0645 28.3158 79.4272 29.1233 79.4272C29.9255 79.4272 30.6854 79.0645 31.1858 78.437C32.2951 77.0576 58.2493 44.4951 58.2493 29.1233C58.2493 13.0684 45.1808 0 29.1233 0V0ZM29.1233 72.4853C20.9423 61.8579 5.29515 39.3932 5.29515 29.1233C5.29515 15.986 15.9834 5.29515 29.1233 5.29515C42.2606 5.29515 52.9541 15.986 52.9541 29.1233C52.9541 39.3932 37.3017 61.8605 29.1233 72.4853V72.4853Z" fill="#ED6B21"/>
        <path d="M29.1233 12.5762C21.4559 12.5762 15.2235 18.8112 15.2235 26.4759C15.2235 34.1407 21.4559 40.3757 29.1233 40.3757C36.7906 40.3757 43.0257 34.1407 43.0257 26.4759C43.0257 18.8112 36.788 12.5762 29.1233 12.5762ZM29.1233 35.0805C24.3762 35.0805 20.5187 31.2204 20.5187 26.4759C20.5187 21.7315 24.3762 17.8713 29.1233 17.8713C33.8677 17.8713 37.7305 21.7315 37.7305 26.4759C37.7305 31.2204 33.8677 35.0805 29.1233 35.0805Z" fill="#ED6B21"/>
    </symbol>

    <symbol id="logo_header" viewBox="0 0 206 61" fill="none">
        <circle cx="30.5" cy="30.5" r="28.5" fill="#ED6B21" stroke="#252525" stroke-width="4"/>
        <circle cx="30" cy="30" r="3" fill="#252525"/>
        <line x1="24" y1="30" x2="4" y2="30" stroke="#252525" stroke-width="4"/>
        <path d="M27 30L18.75 38.6603L18.75 21.3397L27 30Z" fill="#252525"/>
        <line x1="36" y1="30" x2="58" y2="30" stroke="#252525" stroke-width="4"/>
        <path d="M33 30L41.25 21.3397L41.25 38.6603L33 30Z" fill="#252525"/>
        <line x1="30" y1="24" x2="30" y2="2" stroke="#252525" stroke-width="4"/>
        <path d="M30 27L21.3397 18.75L38.6603 18.75L30 27Z" fill="#252525"/>
        <line x1="30" y1="36" x2="30" y2="58" stroke="#252525" stroke-width="4"/>
        <path d="M30 33L38.6603 41.25L21.3397 41.25L30 33Z" fill="#252525"/>
        <line x1="23" y1="30" x2="37" y2="30" stroke="#252525" stroke-width="2"/>
        <line x1="30" y1="23" x2="30" y2="37" stroke="#252525" stroke-width="2"/>
        <path d="M78.375 24.3636V36H76.625V25.8636H71.1477V36H69.3977V24.3636H78.375ZM80.9233 39.2727V27.2727H82.5824V28.6875H82.7244C82.8229 28.5057 82.965 28.2955 83.1506 28.0568C83.3362 27.8182 83.5938 27.6098 83.9233 27.4318C84.2528 27.25 84.6884 27.1591 85.2301 27.1591C85.9347 27.1591 86.5634 27.3371 87.1165 27.6932C87.6695 28.0492 88.1032 28.5625 88.4176 29.233C88.7358 29.9034 88.8949 30.7102 88.8949 31.6534C88.8949 32.5966 88.7377 33.4053 88.4233 34.0795C88.1089 34.75 87.6771 35.267 87.1278 35.6307C86.5786 35.9905 85.9517 36.1705 85.2472 36.1705C84.7169 36.1705 84.2831 36.0814 83.946 35.9034C83.6127 35.7254 83.3513 35.517 83.1619 35.2784C82.9725 35.0398 82.8267 34.8277 82.7244 34.642H82.6222V39.2727H80.9233ZM82.5881 31.6364C82.5881 32.25 82.6771 32.7879 82.8551 33.25C83.0331 33.7121 83.2907 34.0739 83.6278 34.3352C83.965 34.5928 84.3778 34.7216 84.8665 34.7216C85.3741 34.7216 85.7983 34.5871 86.1392 34.3182C86.4801 34.0455 86.7377 33.6761 86.9119 33.2102C87.09 32.7443 87.179 32.2197 87.179 31.6364C87.179 31.0606 87.0919 30.5436 86.9176 30.0852C86.7472 29.6269 86.4896 29.2652 86.1449 29C85.804 28.7348 85.3778 28.6023 84.8665 28.6023C84.3741 28.6023 83.9574 28.7292 83.6165 28.983C83.2794 29.2367 83.0237 29.5909 82.8494 30.0455C82.6752 30.5 82.5881 31.0303 82.5881 31.6364ZM94.4744 36.1761C93.6563 36.1761 92.9422 35.9886 92.3324 35.6136C91.7225 35.2386 91.2491 34.714 90.9119 34.0398C90.5748 33.3655 90.4062 32.5777 90.4062 31.6761C90.4062 30.7708 90.5748 29.9792 90.9119 29.3011C91.2491 28.6231 91.7225 28.0966 92.3324 27.7216C92.9422 27.3466 93.6563 27.1591 94.4744 27.1591C95.2926 27.1591 96.0066 27.3466 96.6165 27.7216C97.2263 28.0966 97.6998 28.6231 98.0369 29.3011C98.3741 29.9792 98.5426 30.7708 98.5426 31.6761C98.5426 32.5777 98.3741 33.3655 98.0369 34.0398C97.6998 34.714 97.2263 35.2386 96.6165 35.6136C96.0066 35.9886 95.2926 36.1761 94.4744 36.1761ZM94.4801 34.75C95.0104 34.75 95.4498 34.6098 95.7983 34.3295C96.1468 34.0492 96.4044 33.6761 96.571 33.2102C96.7415 32.7443 96.8267 32.2311 96.8267 31.6705C96.8267 31.1136 96.7415 30.6023 96.571 30.1364C96.4044 29.6667 96.1468 29.2898 95.7983 29.0057C95.4498 28.7216 95.0104 28.5795 94.4801 28.5795C93.946 28.5795 93.5028 28.7216 93.1506 29.0057C92.8021 29.2898 92.5426 29.6667 92.3722 30.1364C92.2055 30.6023 92.1222 31.1136 92.1222 31.6705C92.1222 32.2311 92.2055 32.7443 92.3722 33.2102C92.5426 33.6761 92.8021 34.0492 93.1506 34.3295C93.5028 34.6098 93.946 34.75 94.4801 34.75ZM104.195 38.9716V24.3636H105.893V38.9716H104.195ZM104.195 36.1761C103.577 36.1761 103.015 36.0701 102.507 35.858C102 35.642 101.562 35.3352 101.195 34.9375C100.827 34.5398 100.543 34.0644 100.342 33.5114C100.145 32.9583 100.047 32.3466 100.047 31.6761C100.047 30.9981 100.145 30.3826 100.342 29.8295C100.543 29.2765 100.827 28.8011 101.195 28.4034C101.562 28.0057 102 27.6989 102.507 27.483C103.015 27.267 103.577 27.1591 104.195 27.1591H104.615V36.1761H104.195ZM104.195 34.7443H104.433V28.5909H104.195C103.786 28.5909 103.429 28.6742 103.126 28.8409C102.823 29.0038 102.571 29.2292 102.371 29.517C102.17 29.8011 102.018 30.1288 101.916 30.5C101.818 30.8712 101.768 31.2633 101.768 31.6761C101.768 32.2292 101.857 32.7386 102.036 33.2045C102.214 33.6667 102.482 34.0398 102.842 34.3239C103.202 34.6042 103.653 34.7443 104.195 34.7443ZM105.893 36.1761H105.467V27.1591H105.893C106.511 27.1591 107.073 27.267 107.581 27.483C108.089 27.6989 108.524 28.0057 108.888 28.4034C109.255 28.8011 109.537 29.2765 109.734 29.8295C109.935 30.3826 110.036 30.9981 110.036 31.6761C110.036 32.3466 109.935 32.9583 109.734 33.5114C109.537 34.0644 109.255 34.5398 108.888 34.9375C108.524 35.3352 108.089 35.642 107.581 35.858C107.073 36.0701 106.511 36.1761 105.893 36.1761ZM105.893 34.7443C106.303 34.7443 106.659 34.6648 106.962 34.5057C107.265 34.3428 107.517 34.1193 107.717 33.8352C107.918 33.5473 108.068 33.2197 108.166 32.8523C108.265 32.4811 108.314 32.089 108.314 31.6761C108.314 31.1269 108.225 30.6193 108.047 30.1534C107.873 29.6837 107.606 29.3068 107.246 29.0227C106.886 28.7348 106.435 28.5909 105.893 28.5909H105.649V34.7443H105.893ZM110.845 25.875V24.3636H119.851V25.875H116.22V36H114.47V25.875H110.845ZM124.2 36.1761C123.34 36.1761 122.6 35.9924 121.979 35.625C121.361 35.2538 120.884 34.733 120.547 34.0625C120.214 33.3883 120.047 32.5985 120.047 31.6932C120.047 30.7992 120.214 30.0114 120.547 29.3295C120.884 28.6477 121.354 28.1155 121.956 27.733C122.562 27.3504 123.27 27.1591 124.081 27.1591C124.573 27.1591 125.051 27.2405 125.513 27.4034C125.975 27.5663 126.39 27.822 126.757 28.1705C127.125 28.5189 127.414 28.9716 127.626 29.5284C127.839 30.0814 127.945 30.7538 127.945 31.5455V32.1477H121.007V30.875H126.28C126.28 30.428 126.189 30.0322 126.007 29.6875C125.825 29.339 125.57 29.0644 125.24 28.8636C124.914 28.6629 124.532 28.5625 124.092 28.5625C123.615 28.5625 123.198 28.6799 122.842 28.9148C122.49 29.1458 122.217 29.4489 122.024 29.8239C121.835 30.1951 121.74 30.5985 121.74 31.0341V32.0284C121.74 32.6117 121.842 33.108 122.047 33.517C122.255 33.9261 122.545 34.2386 122.916 34.4545C123.287 34.6667 123.721 34.7727 124.217 34.7727C124.539 34.7727 124.833 34.7273 125.098 34.6364C125.363 34.5417 125.592 34.4015 125.786 34.2159C125.979 34.0303 126.126 33.8011 126.229 33.5284L127.837 33.8182C127.708 34.2917 127.477 34.7064 127.143 35.0625C126.814 35.4148 126.399 35.6894 125.899 35.8864C125.403 36.0795 124.837 36.1761 124.2 36.1761ZM130.967 27.2727L132.893 30.6705L134.837 27.2727H136.695L133.973 31.6364L136.717 36H134.859L132.893 32.7386L130.933 36H129.07L131.786 31.6364L129.104 27.2727H130.967ZM146.081 29.5795V31.0682H141.212V29.5795H146.081ZM138.206 32.3068H139.99C140.089 33.072 140.342 33.6572 140.751 34.0625C141.164 34.4678 141.806 34.6705 142.678 34.6705C143.321 34.6705 143.852 34.5 144.268 34.1591C144.685 33.8144 144.994 33.3485 145.195 32.7614C145.399 32.1742 145.501 31.5152 145.501 30.7841V29.6023C145.501 28.8144 145.388 28.1288 145.161 27.5455C144.933 26.9621 144.602 26.5114 144.166 26.1932C143.734 25.875 143.206 25.7159 142.581 25.7159C142.017 25.7159 141.554 25.8125 141.195 26.0057C140.835 26.1989 140.558 26.4754 140.365 26.8352C140.176 27.1913 140.051 27.6212 139.99 28.125H138.2C138.276 27.375 138.484 26.7045 138.825 26.1136C139.17 25.5227 139.653 25.0568 140.274 24.7159C140.899 24.375 141.668 24.2045 142.581 24.2045C143.543 24.2045 144.375 24.428 145.075 24.875C145.78 25.3182 146.323 25.9432 146.706 26.75C147.089 27.5568 147.28 28.5038 147.28 29.5909V30.8011C147.28 31.8883 147.09 32.8333 146.712 33.6364C146.337 34.4394 145.804 35.0606 145.115 35.5C144.426 35.9394 143.613 36.1591 142.678 36.1591C141.742 36.1591 140.956 35.9924 140.32 35.6591C139.683 35.322 139.191 34.8636 138.842 34.2841C138.494 33.7008 138.282 33.0417 138.206 32.3068ZM149.33 36V27.2727H151.028V30.9318H151.847L154.727 27.2727H156.83L153.449 31.517L156.869 36H154.761L152.131 32.5114H151.028V36H149.33ZM161.506 36.1761C160.661 36.1761 159.934 35.9848 159.324 35.6023C158.718 35.2159 158.252 34.6837 157.926 34.0057C157.6 33.3277 157.438 32.5511 157.438 31.6761C157.438 30.7898 157.604 30.0076 157.938 29.3295C158.271 28.6477 158.741 28.1155 159.347 27.733C159.953 27.3504 160.667 27.1591 161.489 27.1591C162.152 27.1591 162.742 27.2822 163.261 27.5284C163.78 27.7708 164.199 28.1117 164.517 28.5511C164.839 28.9905 165.03 29.5038 165.091 30.0909H163.438C163.347 29.6818 163.138 29.3295 162.812 29.0341C162.491 28.7386 162.059 28.5909 161.517 28.5909C161.044 28.5909 160.629 28.7159 160.273 28.9659C159.92 29.2121 159.646 29.5644 159.449 30.0227C159.252 30.4773 159.153 31.0152 159.153 31.6364C159.153 32.2727 159.25 32.822 159.443 33.2841C159.636 33.7462 159.909 34.1042 160.261 34.358C160.617 34.6117 161.036 34.7386 161.517 34.7386C161.839 34.7386 162.131 34.6799 162.392 34.5625C162.657 34.4413 162.879 34.2689 163.057 34.0455C163.239 33.822 163.366 33.553 163.438 33.2386H165.091C165.03 33.803 164.847 34.3068 164.54 34.75C164.233 35.1932 163.822 35.5417 163.307 35.7955C162.795 36.0492 162.195 36.1761 161.506 36.1761ZM166.908 36V27.2727H174.027V36H172.362V28.7386H168.561V36H166.908ZM180.06 36.1761C179.2 36.1761 178.459 35.9924 177.838 35.625C177.221 35.2538 176.743 34.733 176.406 34.0625C176.073 33.3883 175.906 32.5985 175.906 31.6932C175.906 30.7992 176.073 30.0114 176.406 29.3295C176.743 28.6477 177.213 28.1155 177.815 27.733C178.421 27.3504 179.13 27.1591 179.94 27.1591C180.433 27.1591 180.91 27.2405 181.372 27.4034C181.834 27.5663 182.249 27.822 182.616 28.1705C182.984 28.5189 183.274 28.9716 183.486 29.5284C183.698 30.0814 183.804 30.7538 183.804 31.5455V32.1477H176.866V30.875H182.139C182.139 30.428 182.048 30.0322 181.866 29.6875C181.685 29.339 181.429 29.0644 181.099 28.8636C180.774 28.6629 180.391 28.5625 179.952 28.5625C179.474 28.5625 179.058 28.6799 178.702 28.9148C178.349 29.1458 178.077 29.4489 177.884 29.8239C177.694 30.1951 177.599 30.5985 177.599 31.0341V32.0284C177.599 32.6117 177.702 33.108 177.906 33.517C178.115 33.9261 178.404 34.2386 178.776 34.4545C179.147 34.6667 179.58 34.7727 180.077 34.7727C180.399 34.7727 180.692 34.7273 180.957 34.6364C181.223 34.5417 181.452 34.4015 181.645 34.2159C181.838 34.0303 181.986 33.8011 182.088 33.5284L183.696 33.8182C183.567 34.2917 183.336 34.7064 183.003 35.0625C182.673 35.4148 182.259 35.6894 181.759 35.8864C181.262 36.0795 180.696 36.1761 180.06 36.1761ZM185.689 39.2727V27.2727H187.348V28.6875H187.49C187.589 28.5057 187.731 28.2955 187.916 28.0568C188.102 27.8182 188.359 27.6098 188.689 27.4318C189.018 27.25 189.454 27.1591 189.996 27.1591C190.7 27.1591 191.329 27.3371 191.882 27.6932C192.435 28.0492 192.869 28.5625 193.183 29.233C193.501 29.9034 193.661 30.7102 193.661 31.6534C193.661 32.5966 193.503 33.4053 193.189 34.0795C192.875 34.75 192.443 35.267 191.893 35.6307C191.344 35.9905 190.717 36.1705 190.013 36.1705C189.482 36.1705 189.049 36.0814 188.712 35.9034C188.378 35.7254 188.117 35.517 187.928 35.2784C187.738 35.0398 187.592 34.8277 187.49 34.642H187.388V39.2727H185.689ZM187.354 31.6364C187.354 32.25 187.443 32.7879 187.621 33.25C187.799 33.7121 188.056 34.0739 188.393 34.3352C188.731 34.5928 189.143 34.7216 189.632 34.7216C190.14 34.7216 190.564 34.5871 190.905 34.3182C191.246 34.0455 191.503 33.6761 191.678 33.2102C191.856 32.7443 191.945 32.2197 191.945 31.6364C191.945 31.0606 191.857 30.5436 191.683 30.0852C191.513 29.6269 191.255 29.2652 190.911 29C190.57 28.7348 190.143 28.6023 189.632 28.6023C189.14 28.6023 188.723 28.7292 188.382 28.983C188.045 29.2367 187.789 29.5909 187.615 30.0455C187.441 30.5 187.354 31.0303 187.354 31.6364ZM194.513 28.7386V27.2727H201.876V28.7386H199.03V36H197.371V28.7386H194.513Z" fill="white"/>
    </symbol>

    <symbol id="footer__logo" viewBox="0 0 309 61" fill="none">
        <path d="M78.375 44.3636V56H76.625V45.8636H71.1477V56H69.3977V44.3636H78.375ZM80.9233 59.2727V47.2727H82.5824V48.6875H82.7244C82.8229 48.5057 82.965 48.2955 83.1506 48.0568C83.3362 47.8182 83.5938 47.6098 83.9233 47.4318C84.2528 47.25 84.6884 47.1591 85.2301 47.1591C85.9347 47.1591 86.5634 47.3371 87.1165 47.6932C87.6695 48.0492 88.1032 48.5625 88.4176 49.233C88.7358 49.9034 88.8949 50.7102 88.8949 51.6534C88.8949 52.5966 88.7377 53.4053 88.4233 54.0795C88.1089 54.75 87.6771 55.267 87.1278 55.6307C86.5786 55.9905 85.9517 56.1705 85.2472 56.1705C84.7169 56.1705 84.2831 56.0814 83.946 55.9034C83.6127 55.7254 83.3513 55.517 83.1619 55.2784C82.9725 55.0398 82.8267 54.8277 82.7244 54.642H82.6222V59.2727H80.9233ZM82.5881 51.6364C82.5881 52.25 82.6771 52.7879 82.8551 53.25C83.0331 53.7121 83.2907 54.0739 83.6278 54.3352C83.965 54.5928 84.3778 54.7216 84.8665 54.7216C85.3741 54.7216 85.7983 54.5871 86.1392 54.3182C86.4801 54.0455 86.7377 53.6761 86.9119 53.2102C87.09 52.7443 87.179 52.2197 87.179 51.6364C87.179 51.0606 87.0919 50.5436 86.9176 50.0852C86.7472 49.6269 86.4896 49.2652 86.1449 49C85.804 48.7348 85.3778 48.6023 84.8665 48.6023C84.3741 48.6023 83.9574 48.7292 83.6165 48.983C83.2794 49.2367 83.0237 49.5909 82.8494 50.0455C82.6752 50.5 82.5881 51.0303 82.5881 51.6364ZM94.4744 56.1761C93.6563 56.1761 92.9422 55.9886 92.3324 55.6136C91.7225 55.2386 91.2491 54.714 90.9119 54.0398C90.5748 53.3655 90.4062 52.5777 90.4062 51.6761C90.4062 50.7708 90.5748 49.9792 90.9119 49.3011C91.2491 48.6231 91.7225 48.0966 92.3324 47.7216C92.9422 47.3466 93.6563 47.1591 94.4744 47.1591C95.2926 47.1591 96.0066 47.3466 96.6165 47.7216C97.2263 48.0966 97.6998 48.6231 98.0369 49.3011C98.3741 49.9792 98.5426 50.7708 98.5426 51.6761C98.5426 52.5777 98.3741 53.3655 98.0369 54.0398C97.6998 54.714 97.2263 55.2386 96.6165 55.6136C96.0066 55.9886 95.2926 56.1761 94.4744 56.1761ZM94.4801 54.75C95.0104 54.75 95.4498 54.6098 95.7983 54.3295C96.1468 54.0492 96.4044 53.6761 96.571 53.2102C96.7415 52.7443 96.8267 52.2311 96.8267 51.6705C96.8267 51.1136 96.7415 50.6023 96.571 50.1364C96.4044 49.6667 96.1468 49.2898 95.7983 49.0057C95.4498 48.7216 95.0104 48.5795 94.4801 48.5795C93.946 48.5795 93.5028 48.7216 93.1506 49.0057C92.8021 49.2898 92.5426 49.6667 92.3722 50.1364C92.2055 50.6023 92.1222 51.1136 92.1222 51.6705C92.1222 52.2311 92.2055 52.7443 92.3722 53.2102C92.5426 53.6761 92.8021 54.0492 93.1506 54.3295C93.5028 54.6098 93.946 54.75 94.4801 54.75ZM104.195 58.9716V44.3636H105.893V58.9716H104.195ZM104.195 56.1761C103.577 56.1761 103.015 56.0701 102.507 55.858C102 55.642 101.562 55.3352 101.195 54.9375C100.827 54.5398 100.543 54.0644 100.342 53.5114C100.145 52.9583 100.047 52.3466 100.047 51.6761C100.047 50.9981 100.145 50.3826 100.342 49.8295C100.543 49.2765 100.827 48.8011 101.195 48.4034C101.562 48.0057 102 47.6989 102.507 47.483C103.015 47.267 103.577 47.1591 104.195 47.1591H104.615V56.1761H104.195ZM104.195 54.7443H104.433V48.5909H104.195C103.786 48.5909 103.429 48.6742 103.126 48.8409C102.823 49.0038 102.571 49.2292 102.371 49.517C102.17 49.8011 102.018 50.1288 101.916 50.5C101.818 50.8712 101.768 51.2633 101.768 51.6761C101.768 52.2292 101.857 52.7386 102.036 53.2045C102.214 53.6667 102.482 54.0398 102.842 54.3239C103.202 54.6042 103.653 54.7443 104.195 54.7443ZM105.893 56.1761H105.467V47.1591H105.893C106.511 47.1591 107.073 47.267 107.581 47.483C108.089 47.6989 108.524 48.0057 108.888 48.4034C109.255 48.8011 109.537 49.2765 109.734 49.8295C109.935 50.3826 110.036 50.9981 110.036 51.6761C110.036 52.3466 109.935 52.9583 109.734 53.5114C109.537 54.0644 109.255 54.5398 108.888 54.9375C108.524 55.3352 108.089 55.642 107.581 55.858C107.073 56.0701 106.511 56.1761 105.893 56.1761ZM105.893 54.7443C106.303 54.7443 106.659 54.6648 106.962 54.5057C107.265 54.3428 107.517 54.1193 107.717 53.8352C107.918 53.5473 108.068 53.2197 108.166 52.8523C108.265 52.4811 108.314 52.089 108.314 51.6761C108.314 51.1269 108.225 50.6193 108.047 50.1534C107.873 49.6837 107.606 49.3068 107.246 49.0227C106.886 48.7348 106.435 48.5909 105.893 48.5909H105.649V54.7443H105.893ZM110.845 45.875V44.3636H119.851V45.875H116.22V56H114.47V45.875H110.845ZM124.2 56.1761C123.34 56.1761 122.6 55.9924 121.979 55.625C121.361 55.2538 120.884 54.733 120.547 54.0625C120.214 53.3883 120.047 52.5985 120.047 51.6932C120.047 50.7992 120.214 50.0114 120.547 49.3295C120.884 48.6477 121.354 48.1155 121.956 47.733C122.562 47.3504 123.27 47.1591 124.081 47.1591C124.573 47.1591 125.051 47.2405 125.513 47.4034C125.975 47.5663 126.39 47.822 126.757 48.1705C127.125 48.5189 127.414 48.9716 127.626 49.5284C127.839 50.0814 127.945 50.7538 127.945 51.5455V52.1477H121.007V50.875H126.28C126.28 50.428 126.189 50.0322 126.007 49.6875C125.825 49.339 125.57 49.0644 125.24 48.8636C124.914 48.6629 124.532 48.5625 124.092 48.5625C123.615 48.5625 123.198 48.6799 122.842 48.9148C122.49 49.1458 122.217 49.4489 122.024 49.8239C121.835 50.1951 121.74 50.5985 121.74 51.0341V52.0284C121.74 52.6117 121.842 53.108 122.047 53.517C122.255 53.9261 122.545 54.2386 122.916 54.4545C123.287 54.6667 123.721 54.7727 124.217 54.7727C124.539 54.7727 124.833 54.7273 125.098 54.6364C125.363 54.5417 125.592 54.4015 125.786 54.2159C125.979 54.0303 126.126 53.8011 126.229 53.5284L127.837 53.8182C127.708 54.2917 127.477 54.7064 127.143 55.0625C126.814 55.4148 126.399 55.6894 125.899 55.8864C125.403 56.0795 124.837 56.1761 124.2 56.1761ZM130.967 47.2727L132.893 50.6705L134.837 47.2727H136.695L133.973 51.6364L136.717 56H134.859L132.893 52.7386L130.933 56H129.07L131.786 51.6364L129.104 47.2727H130.967ZM146.081 49.5795V51.0682H141.212V49.5795H146.081ZM138.206 52.3068H139.99C140.089 53.072 140.342 53.6572 140.751 54.0625C141.164 54.4678 141.806 54.6705 142.678 54.6705C143.321 54.6705 143.852 54.5 144.268 54.1591C144.685 53.8144 144.994 53.3485 145.195 52.7614C145.399 52.1742 145.501 51.5152 145.501 50.7841V49.6023C145.501 48.8144 145.388 48.1288 145.161 47.5455C144.933 46.9621 144.602 46.5114 144.166 46.1932C143.734 45.875 143.206 45.7159 142.581 45.7159C142.017 45.7159 141.554 45.8125 141.195 46.0057C140.835 46.1989 140.558 46.4754 140.365 46.8352C140.176 47.1913 140.051 47.6212 139.99 48.125H138.2C138.276 47.375 138.484 46.7045 138.825 46.1136C139.17 45.5227 139.653 45.0568 140.274 44.7159C140.899 44.375 141.668 44.2045 142.581 44.2045C143.543 44.2045 144.375 44.428 145.075 44.875C145.78 45.3182 146.323 45.9432 146.706 46.75C147.089 47.5568 147.28 48.5038 147.28 49.5909V50.8011C147.28 51.8883 147.09 52.8333 146.712 53.6364C146.337 54.4394 145.804 55.0606 145.115 55.5C144.426 55.9394 143.613 56.1591 142.678 56.1591C141.742 56.1591 140.956 55.9924 140.32 55.6591C139.683 55.322 139.191 54.8636 138.842 54.2841C138.494 53.7008 138.282 53.0417 138.206 52.3068ZM149.33 56V47.2727H151.028V50.9318H151.847L154.727 47.2727H156.83L153.449 51.517L156.869 56H154.761L152.131 52.5114H151.028V56H149.33ZM161.506 56.1761C160.661 56.1761 159.934 55.9848 159.324 55.6023C158.718 55.2159 158.252 54.6837 157.926 54.0057C157.6 53.3277 157.438 52.5511 157.438 51.6761C157.438 50.7898 157.604 50.0076 157.938 49.3295C158.271 48.6477 158.741 48.1155 159.347 47.733C159.953 47.3504 160.667 47.1591 161.489 47.1591C162.152 47.1591 162.742 47.2822 163.261 47.5284C163.78 47.7708 164.199 48.1117 164.517 48.5511C164.839 48.9905 165.03 49.5038 165.091 50.0909H163.438C163.347 49.6818 163.138 49.3295 162.812 49.0341C162.491 48.7386 162.059 48.5909 161.517 48.5909C161.044 48.5909 160.629 48.7159 160.273 48.9659C159.92 49.2121 159.646 49.5644 159.449 50.0227C159.252 50.4773 159.153 51.0152 159.153 51.6364C159.153 52.2727 159.25 52.822 159.443 53.2841C159.636 53.7462 159.909 54.1042 160.261 54.358C160.617 54.6117 161.036 54.7386 161.517 54.7386C161.839 54.7386 162.131 54.6799 162.392 54.5625C162.657 54.4413 162.879 54.2689 163.057 54.0455C163.239 53.822 163.366 53.553 163.438 53.2386H165.091C165.03 53.803 164.847 54.3068 164.54 54.75C164.233 55.1932 163.822 55.5417 163.307 55.7955C162.795 56.0492 162.195 56.1761 161.506 56.1761ZM166.908 56V47.2727H174.027V56H172.362V48.7386H168.561V56H166.908ZM180.06 56.1761C179.2 56.1761 178.459 55.9924 177.838 55.625C177.221 55.2538 176.743 54.733 176.406 54.0625C176.073 53.3883 175.906 52.5985 175.906 51.6932C175.906 50.7992 176.073 50.0114 176.406 49.3295C176.743 48.6477 177.213 48.1155 177.815 47.733C178.421 47.3504 179.13 47.1591 179.94 47.1591C180.433 47.1591 180.91 47.2405 181.372 47.4034C181.834 47.5663 182.249 47.822 182.616 48.1705C182.984 48.5189 183.274 48.9716 183.486 49.5284C183.698 50.0814 183.804 50.7538 183.804 51.5455V52.1477H176.866V50.875H182.139C182.139 50.428 182.048 50.0322 181.866 49.6875C181.685 49.339 181.429 49.0644 181.099 48.8636C180.774 48.6629 180.391 48.5625 179.952 48.5625C179.474 48.5625 179.058 48.6799 178.702 48.9148C178.349 49.1458 178.077 49.4489 177.884 49.8239C177.694 50.1951 177.599 50.5985 177.599 51.0341V52.0284C177.599 52.6117 177.702 53.108 177.906 53.517C178.115 53.9261 178.404 54.2386 178.776 54.4545C179.147 54.6667 179.58 54.7727 180.077 54.7727C180.399 54.7727 180.692 54.7273 180.957 54.6364C181.223 54.5417 181.452 54.4015 181.645 54.2159C181.838 54.0303 181.986 53.8011 182.088 53.5284L183.696 53.8182C183.567 54.2917 183.336 54.7064 183.003 55.0625C182.673 55.4148 182.259 55.6894 181.759 55.8864C181.262 56.0795 180.696 56.1761 180.06 56.1761ZM185.689 59.2727V47.2727H187.348V48.6875H187.49C187.589 48.5057 187.731 48.2955 187.916 48.0568C188.102 47.8182 188.359 47.6098 188.689 47.4318C189.018 47.25 189.454 47.1591 189.996 47.1591C190.7 47.1591 191.329 47.3371 191.882 47.6932C192.435 48.0492 192.869 48.5625 193.183 49.233C193.501 49.9034 193.661 50.7102 193.661 51.6534C193.661 52.5966 193.503 53.4053 193.189 54.0795C192.875 54.75 192.443 55.267 191.893 55.6307C191.344 55.9905 190.717 56.1705 190.013 56.1705C189.482 56.1705 189.049 56.0814 188.712 55.9034C188.378 55.7254 188.117 55.517 187.928 55.2784C187.738 55.0398 187.592 54.8277 187.49 54.642H187.388V59.2727H185.689ZM187.354 51.6364C187.354 52.25 187.443 52.7879 187.621 53.25C187.799 53.7121 188.056 54.0739 188.393 54.3352C188.731 54.5928 189.143 54.7216 189.632 54.7216C190.14 54.7216 190.564 54.5871 190.905 54.3182C191.246 54.0455 191.503 53.6761 191.678 53.2102C191.856 52.7443 191.945 52.2197 191.945 51.6364C191.945 51.0606 191.857 50.5436 191.683 50.0852C191.513 49.6269 191.255 49.2652 190.911 49C190.57 48.7348 190.143 48.6023 189.632 48.6023C189.14 48.6023 188.723 48.7292 188.382 48.983C188.045 49.2367 187.789 49.5909 187.615 50.0455C187.441 50.5 187.354 51.0303 187.354 51.6364ZM194.513 48.7386V47.2727H201.876V48.7386H199.03V56H197.371V48.7386H194.513Z" fill="#363636"/>
        <path d="M79.6023 15.4489L79.4489 19.75H77.6989V17H76.8807V15.4489H79.6023ZM69.2784 17V5.36364H70.9602V15.4773H76.5739V5.36364H78.2614V17H69.2784ZM85.1534 17.1761C84.2936 17.1761 83.553 16.9924 82.9318 16.625C82.3144 16.2538 81.8371 15.733 81.5 15.0625C81.1667 14.3883 81 13.5985 81 12.6932C81 11.7992 81.1667 11.0114 81.5 10.3295C81.8371 9.64773 82.3068 9.11553 82.9091 8.73295C83.5152 8.35038 84.2235 8.15909 85.0341 8.15909C85.5265 8.15909 86.0038 8.24053 86.4659 8.40341C86.928 8.56629 87.3428 8.82197 87.7102 9.17045C88.0777 9.51894 88.3674 9.97159 88.5795 10.5284C88.7917 11.0814 88.8977 11.7538 88.8977 12.5455V13.1477H81.9602V11.875H87.233C87.233 11.428 87.142 11.0322 86.9602 10.6875C86.7784 10.339 86.5227 10.0644 86.1932 9.86364C85.8674 9.66288 85.4848 9.5625 85.0455 9.5625C84.5682 9.5625 84.1515 9.67992 83.7955 9.91477C83.4432 10.1458 83.1705 10.4489 82.9773 10.8239C82.7879 11.1951 82.6932 11.5985 82.6932 12.0341V13.0284C82.6932 13.6117 82.7955 14.108 83 14.517C83.2083 14.9261 83.4981 15.2386 83.8693 15.4545C84.2405 15.6667 84.6742 15.7727 85.1705 15.7727C85.4924 15.7727 85.786 15.7273 86.0511 15.6364C86.3163 15.5417 86.5455 15.4015 86.7386 15.2159C86.9318 15.0303 87.0795 14.8011 87.1818 14.5284L88.7898 14.8182C88.661 15.2917 88.4299 15.7064 88.0966 16.0625C87.767 16.4148 87.3523 16.6894 86.8523 16.8864C86.3561 17.0795 85.7898 17.1761 85.1534 17.1761ZM96.6974 11.9034V13.375H91.9702V11.9034H96.6974ZM92.4474 8.27273V17H90.7827V8.27273H92.4474ZM97.8849 8.27273V17H96.2259V8.27273H97.8849ZM99.0753 9.73864V8.27273H106.439V9.73864H103.592V17H101.933V9.73864H99.0753ZM108.236 20.2727V8.27273H109.895V9.6875H110.037C110.135 9.50568 110.277 9.29545 110.463 9.05682C110.649 8.81818 110.906 8.60985 111.236 8.43182C111.565 8.25 112.001 8.15909 112.543 8.15909C113.247 8.15909 113.876 8.33712 114.429 8.69318C114.982 9.04924 115.416 9.5625 115.73 10.233C116.048 10.9034 116.207 11.7102 116.207 12.6534C116.207 13.5966 116.05 14.4053 115.736 15.0795C115.421 15.75 114.99 16.267 114.44 16.6307C113.891 16.9905 113.264 17.1705 112.56 17.1705C112.029 17.1705 111.596 17.0814 111.259 16.9034C110.925 16.7254 110.664 16.517 110.474 16.2784C110.285 16.0398 110.139 15.8277 110.037 15.642H109.935V20.2727H108.236ZM109.901 12.6364C109.901 13.25 109.99 13.7879 110.168 14.25C110.346 14.7121 110.603 15.0739 110.94 15.3352C111.277 15.5928 111.69 15.7216 112.179 15.7216C112.687 15.7216 113.111 15.5871 113.452 15.3182C113.793 15.0455 114.05 14.6761 114.224 14.2102C114.402 13.7443 114.491 13.2197 114.491 12.6364C114.491 12.0606 114.404 11.5436 114.23 11.0852C114.06 10.6269 113.802 10.2652 113.457 10C113.116 9.73485 112.69 9.60227 112.179 9.60227C111.687 9.60227 111.27 9.72917 110.929 9.98295C110.592 10.2367 110.336 10.5909 110.162 11.0455C109.988 11.5 109.901 12.0303 109.901 12.6364ZM129.737 5.36364V6.875H124.237V17H122.482V5.36364H129.737ZM130.673 20.2727V8.27273H132.332V9.6875H132.474C132.573 9.50568 132.715 9.29545 132.901 9.05682C133.086 8.81818 133.344 8.60985 133.673 8.43182C134.003 8.25 134.438 8.15909 134.98 8.15909C135.685 8.15909 136.313 8.33712 136.866 8.69318C137.42 9.04924 137.853 9.5625 138.168 10.233C138.486 10.9034 138.645 11.7102 138.645 12.6534C138.645 13.5966 138.488 14.4053 138.173 15.0795C137.859 15.75 137.427 16.267 136.878 16.6307C136.329 16.9905 135.702 17.1705 134.997 17.1705C134.467 17.1705 134.033 17.0814 133.696 16.9034C133.363 16.7254 133.101 16.517 132.912 16.2784C132.723 16.0398 132.577 15.8277 132.474 15.642H132.372V20.2727H130.673ZM132.338 12.6364C132.338 13.25 132.427 13.7879 132.605 14.25C132.783 14.7121 133.041 15.0739 133.378 15.3352C133.715 15.5928 134.128 15.7216 134.616 15.7216C135.124 15.7216 135.548 15.5871 135.889 15.3182C136.23 15.0455 136.488 14.6761 136.662 14.2102C136.84 13.7443 136.929 13.2197 136.929 12.6364C136.929 12.0606 136.842 11.5436 136.668 11.0852C136.497 10.6269 136.24 10.2652 135.895 10C135.554 9.73485 135.128 9.60227 134.616 9.60227C134.124 9.60227 133.707 9.72917 133.366 9.98295C133.029 10.2367 132.774 10.5909 132.599 11.0455C132.425 11.5 132.338 12.0303 132.338 12.6364ZM141.325 20.2727C141.071 20.2727 140.84 20.2519 140.632 20.2102C140.424 20.1723 140.268 20.1307 140.166 20.0852L140.575 18.6932C140.886 18.7765 141.162 18.8125 141.405 18.8011C141.647 18.7898 141.861 18.6989 142.047 18.5284C142.236 18.358 142.403 18.0795 142.547 17.6932L142.757 17.1136L139.564 8.27273H141.382L143.592 15.0455H143.683L145.893 8.27273H147.717L144.121 18.1648C143.954 18.6193 143.742 19.0038 143.484 19.3182C143.227 19.6364 142.92 19.875 142.564 20.0341C142.208 20.1932 141.795 20.2727 141.325 20.2727ZM148.797 14.6932H150.536C150.558 15.0492 150.719 15.3239 151.018 15.517C151.321 15.7102 151.714 15.8068 152.195 15.8068C152.683 15.8068 153.1 15.7027 153.445 15.4943C153.789 15.2822 153.962 14.9545 153.962 14.5114C153.962 14.2462 153.895 14.0152 153.763 13.8182C153.634 13.6174 153.45 13.4621 153.212 13.3523C152.977 13.2424 152.698 13.1875 152.376 13.1875H150.956V11.8523H152.376C152.857 11.8523 153.217 11.7424 153.456 11.5227C153.695 11.303 153.814 11.0284 153.814 10.6989C153.814 10.3428 153.685 10.0568 153.428 9.84091C153.174 9.62121 152.82 9.51136 152.365 9.51136C151.903 9.51136 151.518 9.61553 151.212 9.82386C150.905 10.0284 150.744 10.2936 150.729 10.6193H149.013C149.024 10.1307 149.172 9.70265 149.456 9.33523C149.744 8.96402 150.13 8.67614 150.615 8.47159C151.104 8.26326 151.659 8.15909 152.28 8.15909C152.928 8.15909 153.488 8.26326 153.962 8.47159C154.435 8.67992 154.801 8.9678 155.058 9.33523C155.32 9.70265 155.45 10.125 155.45 10.6023C155.45 11.0833 155.306 11.4773 155.018 11.7841C154.734 12.0871 154.363 12.3049 153.905 12.4375V12.5284C154.242 12.5511 154.541 12.6534 154.803 12.8352C155.064 13.017 155.268 13.2576 155.416 13.5568C155.564 13.8561 155.638 14.1951 155.638 14.5739C155.638 15.108 155.49 15.5701 155.195 15.9602C154.903 16.3504 154.498 16.6515 153.979 16.8636C153.464 17.072 152.875 17.1761 152.212 17.1761C151.568 17.1761 150.99 17.0758 150.479 16.875C149.971 16.6705 149.568 16.3826 149.268 16.0114C148.973 15.6402 148.816 15.2008 148.797 14.6932ZM161.068 17.1761C160.25 17.1761 159.536 16.9886 158.926 16.6136C158.316 16.2386 157.843 15.714 157.506 15.0398C157.169 14.3655 157 13.5777 157 12.6761C157 11.7708 157.169 10.9792 157.506 10.3011C157.843 9.62311 158.316 9.09659 158.926 8.72159C159.536 8.34659 160.25 8.15909 161.068 8.15909C161.886 8.15909 162.6 8.34659 163.21 8.72159C163.82 9.09659 164.294 9.62311 164.631 10.3011C164.968 10.9792 165.136 11.7708 165.136 12.6761C165.136 13.5777 164.968 14.3655 164.631 15.0398C164.294 15.714 163.82 16.2386 163.21 16.6136C162.6 16.9886 161.886 17.1761 161.068 17.1761ZM161.074 15.75C161.604 15.75 162.044 15.6098 162.392 15.3295C162.741 15.0492 162.998 14.6761 163.165 14.2102C163.335 13.7443 163.42 13.2311 163.42 12.6705C163.42 12.1136 163.335 11.6023 163.165 11.1364C162.998 10.6667 162.741 10.2898 162.392 10.0057C162.044 9.72159 161.604 9.57955 161.074 9.57955C160.54 9.57955 160.097 9.72159 159.744 10.0057C159.396 10.2898 159.136 10.6667 158.966 11.1364C158.799 11.6023 158.716 12.1136 158.716 12.6705C158.716 13.2311 158.799 13.7443 158.966 14.2102C159.136 14.6761 159.396 15.0492 159.744 15.3295C160.097 15.6098 160.54 15.75 161.074 15.75ZM167.033 17V8.27273H174.152V17H172.487V9.73864H168.686V17H167.033ZM180.099 17.1761C179.281 17.1761 178.567 16.9886 177.957 16.6136C177.348 16.2386 176.874 15.714 176.537 15.0398C176.2 14.3655 176.031 13.5777 176.031 12.6761C176.031 11.7708 176.2 10.9792 176.537 10.3011C176.874 9.62311 177.348 9.09659 177.957 8.72159C178.567 8.34659 179.281 8.15909 180.099 8.15909C180.918 8.15909 181.632 8.34659 182.241 8.72159C182.851 9.09659 183.325 9.62311 183.662 10.3011C183.999 10.9792 184.168 11.7708 184.168 12.6761C184.168 13.5777 183.999 14.3655 183.662 15.0398C183.325 15.714 182.851 16.2386 182.241 16.6136C181.632 16.9886 180.918 17.1761 180.099 17.1761ZM180.105 15.75C180.635 15.75 181.075 15.6098 181.423 15.3295C181.772 15.0492 182.029 14.6761 182.196 14.2102C182.366 13.7443 182.452 13.2311 182.452 12.6705C182.452 12.1136 182.366 11.6023 182.196 11.1364C182.029 10.6667 181.772 10.2898 181.423 10.0057C181.075 9.72159 180.635 9.57955 180.105 9.57955C179.571 9.57955 179.128 9.72159 178.776 10.0057C178.427 10.2898 178.168 10.6667 177.997 11.1364C177.83 11.6023 177.747 12.1136 177.747 12.6705C177.747 13.2311 177.83 13.7443 177.997 14.2102C178.168 14.6761 178.427 15.0492 178.776 15.3295C179.128 15.6098 179.571 15.75 180.105 15.75ZM185.212 19.517V15.5284H185.922C186.104 15.3617 186.257 15.1629 186.382 14.9318C186.511 14.7008 186.619 14.4261 186.706 14.108C186.797 13.7898 186.873 13.4186 186.933 12.9943C186.994 12.5663 187.047 12.0777 187.092 11.5284L187.365 8.27273H193.297V15.5284H194.638V19.517H192.979V17H186.893V19.517H185.212ZM187.74 15.5284H191.638V9.72727H188.888L188.706 11.5284C188.619 12.4451 188.509 13.2405 188.376 13.9148C188.244 14.5852 188.032 15.1231 187.74 15.5284ZM197.997 8.27273V9.74432H195.628V8.27273H197.997ZM199.276 11.2727H201.81C202.878 11.2727 203.7 11.5379 204.276 12.0682C204.851 12.5985 205.141 13.2822 205.145 14.1193C205.141 14.6648 205.01 15.1553 204.753 15.5909C204.495 16.0265 204.118 16.3712 203.622 16.625C203.126 16.875 202.522 17 201.81 17H197.997V8.27273H199.662V15.5341H201.81C202.298 15.5341 202.7 15.4072 203.014 15.1534C203.329 14.8958 203.486 14.5682 203.486 14.1705C203.486 13.75 203.329 13.4072 203.014 13.142C202.7 12.8731 202.298 12.7386 201.81 12.7386H199.276V11.2727ZM210.81 17.1761C209.95 17.1761 209.209 16.9924 208.588 16.625C207.971 16.2538 207.493 15.733 207.156 15.0625C206.823 14.3883 206.656 13.5985 206.656 12.6932C206.656 11.7992 206.823 11.0114 207.156 10.3295C207.493 9.64773 207.963 9.11553 208.565 8.73295C209.171 8.35038 209.88 8.15909 210.69 8.15909C211.183 8.15909 211.66 8.24053 212.122 8.40341C212.584 8.56629 212.999 8.82197 213.366 9.17045C213.734 9.51894 214.024 9.97159 214.236 10.5284C214.448 11.0814 214.554 11.7538 214.554 12.5455V13.1477H207.616V11.875H212.889C212.889 11.428 212.798 11.0322 212.616 10.6875C212.435 10.339 212.179 10.0644 211.849 9.86364C211.524 9.66288 211.141 9.5625 210.702 9.5625C210.224 9.5625 209.808 9.67992 209.452 9.91477C209.099 10.1458 208.827 10.4489 208.634 10.8239C208.444 11.1951 208.349 11.5985 208.349 12.0341V13.0284C208.349 13.6117 208.452 14.108 208.656 14.517C208.865 14.9261 209.154 15.2386 209.526 15.4545C209.897 15.6667 210.33 15.7727 210.827 15.7727C211.149 15.7727 211.442 15.7273 211.707 15.6364C211.973 15.5417 212.202 15.4015 212.395 15.2159C212.588 15.0303 212.736 14.8011 212.838 14.5284L214.446 14.8182C214.317 15.2917 214.086 15.7064 213.753 16.0625C213.423 16.4148 213.009 16.6894 212.509 16.8864C212.012 17.0795 211.446 17.1761 210.81 17.1761ZM221.337 14.8977L224.155 8.27273H225.621L221.967 17H220.706L217.126 8.27273H218.575L221.337 14.8977ZM218.104 8.27273V17H216.439V8.27273H218.104ZM224.615 17V8.27273H226.268V17H224.615ZM234.447 11.9034V13.375H229.72V11.9034H234.447ZM230.197 8.27273V17H228.533V8.27273H230.197ZM235.635 8.27273V17H233.976V8.27273H235.635ZM239.186 11.2727H241.72C242.788 11.2727 243.61 11.5379 244.186 12.0682C244.762 12.5985 245.05 13.2822 245.05 14.1193C245.05 14.6648 244.921 15.1553 244.663 15.5909C244.406 16.0265 244.029 16.3712 243.533 16.625C243.036 16.875 242.432 17 241.72 17H237.908V8.27273H239.572V15.5341H241.72C242.209 15.5341 242.61 15.4072 242.925 15.1534C243.239 14.8958 243.396 14.5682 243.396 14.1705C243.396 13.75 243.239 13.4072 242.925 13.142C242.61 12.8731 242.209 12.7386 241.72 12.7386H239.186V11.2727ZM246.288 17V8.27273H247.987V17H246.288ZM251.608 8.27273L253.534 11.6705L255.477 8.27273H257.335L254.614 12.6364L257.358 17H255.5L253.534 13.7386L251.574 17H249.71L252.426 12.6364L249.744 8.27273H251.608ZM68.7045 25.875V24.3636H77.7102V25.875H74.0795V36H72.3295V25.875H68.7045ZM82.0597 36.1761C81.1998 36.1761 80.4593 35.9924 79.8381 35.625C79.2206 35.2538 78.7434 34.733 78.4062 34.0625C78.0729 33.3883 77.9062 32.5985 77.9062 31.6932C77.9062 30.7992 78.0729 30.0114 78.4062 29.3295C78.7434 28.6477 79.2131 28.1155 79.8153 27.733C80.4214 27.3504 81.1297 27.1591 81.9403 27.1591C82.4328 27.1591 82.91 27.2405 83.3722 27.4034C83.8343 27.5663 84.2491 27.822 84.6165 28.1705C84.9839 28.5189 85.2737 28.9716 85.4858 29.5284C85.6979 30.0814 85.804 30.7538 85.804 31.5455V32.1477H78.8665V30.875H84.1392C84.1392 30.428 84.0483 30.0322 83.8665 29.6875C83.6847 29.339 83.429 29.0644 83.0994 28.8636C82.7737 28.6629 82.3911 28.5625 81.9517 28.5625C81.4744 28.5625 81.0578 28.6799 80.7017 28.9148C80.3494 29.1458 80.0767 29.4489 79.8835 29.8239C79.6941 30.1951 79.5994 30.5985 79.5994 31.0341V32.0284C79.5994 32.6117 79.7017 33.108 79.9062 33.517C80.1146 33.9261 80.4044 34.2386 80.7756 34.4545C81.1468 34.6667 81.5805 34.7727 82.0767 34.7727C82.3987 34.7727 82.6922 34.7273 82.9574 34.6364C83.2225 34.5417 83.4517 34.4015 83.6449 34.2159C83.8381 34.0303 83.9858 33.8011 84.0881 33.5284L85.696 33.8182C85.5672 34.2917 85.3362 34.7064 85.0028 35.0625C84.6733 35.4148 84.2585 35.6894 83.7585 35.8864C83.2623 36.0795 82.696 36.1761 82.0597 36.1761ZM88.8267 27.2727L90.7528 30.6705L92.696 27.2727H94.554L91.8324 31.6364L94.5767 36H92.7188L90.7528 32.7386L88.7926 36H86.929L89.6449 31.6364L86.9631 27.2727H88.8267ZM102.213 30.9034V32.375H97.4858V30.9034H102.213ZM97.9631 27.2727V36H96.2983V27.2727H97.9631ZM103.401 27.2727V36H101.741V27.2727H103.401ZM109.349 36.1761C108.531 36.1761 107.817 35.9886 107.207 35.6136C106.598 35.2386 106.124 34.714 105.787 34.0398C105.45 33.3655 105.281 32.5777 105.281 31.6761C105.281 30.7708 105.45 29.9792 105.787 29.3011C106.124 28.6231 106.598 28.0966 107.207 27.7216C107.817 27.3466 108.531 27.1591 109.349 27.1591C110.168 27.1591 110.882 27.3466 111.491 27.7216C112.101 28.0966 112.575 28.6231 112.912 29.3011C113.249 29.9792 113.418 30.7708 113.418 31.6761C113.418 32.5777 113.249 33.3655 112.912 34.0398C112.575 34.714 112.101 35.2386 111.491 35.6136C110.882 35.9886 110.168 36.1761 109.349 36.1761ZM109.355 34.75C109.885 34.75 110.325 34.6098 110.673 34.3295C111.022 34.0492 111.279 33.6761 111.446 33.2102C111.616 32.7443 111.702 32.2311 111.702 31.6705C111.702 31.1136 111.616 30.6023 111.446 30.1364C111.279 29.6667 111.022 29.2898 110.673 29.0057C110.325 28.7216 109.885 28.5795 109.355 28.5795C108.821 28.5795 108.378 28.7216 108.026 29.0057C107.677 29.2898 107.418 29.6667 107.247 30.1364C107.08 30.6023 106.997 31.1136 106.997 31.6705C106.997 32.2311 107.08 32.7443 107.247 33.2102C107.418 33.6761 107.677 34.0492 108.026 34.3295C108.378 34.6098 108.821 34.75 109.355 34.75ZM114.626 36L114.621 34.5284H114.933C115.176 34.5284 115.378 34.4773 115.541 34.375C115.708 34.2689 115.844 34.0909 115.95 33.8409C116.056 33.5909 116.138 33.2462 116.195 32.8068C116.251 32.3636 116.293 31.8068 116.32 31.1364L116.473 27.2727H122.564V36H120.899V28.7386H118.047L117.911 31.7045C117.876 32.4242 117.803 33.053 117.689 33.5909C117.579 34.1288 117.418 34.5777 117.206 34.9375C116.994 35.2936 116.721 35.5606 116.388 35.7386C116.054 35.9129 115.649 36 115.172 36H114.626ZM128.506 36.1761C127.688 36.1761 126.973 35.9886 126.364 35.6136C125.754 35.2386 125.28 34.714 124.943 34.0398C124.606 33.3655 124.438 32.5777 124.438 31.6761C124.438 30.7708 124.606 29.9792 124.943 29.3011C125.28 28.6231 125.754 28.0966 126.364 27.7216C126.973 27.3466 127.688 27.1591 128.506 27.1591C129.324 27.1591 130.038 27.3466 130.648 27.7216C131.258 28.0966 131.731 28.6231 132.068 29.3011C132.405 29.9792 132.574 30.7708 132.574 31.6761C132.574 32.5777 132.405 33.3655 132.068 34.0398C131.731 34.714 131.258 35.2386 130.648 35.6136C130.038 35.9886 129.324 36.1761 128.506 36.1761ZM128.511 34.75C129.042 34.75 129.481 34.6098 129.83 34.3295C130.178 34.0492 130.436 33.6761 130.602 33.2102C130.773 32.7443 130.858 32.2311 130.858 31.6705C130.858 31.1136 130.773 30.6023 130.602 30.1364C130.436 29.6667 130.178 29.2898 129.83 29.0057C129.481 28.7216 129.042 28.5795 128.511 28.5795C127.977 28.5795 127.534 28.7216 127.182 29.0057C126.833 29.2898 126.574 29.6667 126.403 30.1364C126.237 30.6023 126.153 31.1136 126.153 31.6705C126.153 32.2311 126.237 32.7443 126.403 33.2102C126.574 33.6761 126.833 34.0492 127.182 34.3295C127.534 34.6098 127.977 34.75 128.511 34.75ZM140.05 27.2727V28.7386H136.146V36H134.47V27.2727H140.05ZM143.51 33.6193L147.357 27.2727H149.186V36H147.521V29.6477L143.692 36H141.845V27.2727H143.51V33.6193ZM153.135 33.6193L156.982 27.2727H158.811V36H157.146V29.6477L153.317 36H151.47V27.2727H153.135V33.6193ZM156.254 24.3182H157.652C157.652 24.9583 157.425 25.4792 156.97 25.8807C156.519 26.2784 155.91 26.4773 155.141 26.4773C154.375 26.4773 153.768 26.2784 153.317 25.8807C152.866 25.4792 152.641 24.9583 152.641 24.3182H154.033C154.033 24.6023 154.116 24.8542 154.283 25.0739C154.449 25.2898 154.735 25.3977 155.141 25.3977C155.538 25.3977 155.822 25.2898 155.993 25.0739C156.167 24.858 156.254 24.6061 156.254 24.3182Z" fill="#363636"/>
        <circle cx="30.5" cy="30.5" r="28.5" fill="#ED6B21" stroke="#252525" stroke-width="4"/>
        <circle cx="30" cy="30" r="3" fill="#252525"/>
        <line x1="24" y1="30" x2="4" y2="30" stroke="#252525" stroke-width="4"/>
        <path d="M27 30L18.75 38.6603L18.75 21.3397L27 30Z" fill="#252525"/>
        <line x1="36" y1="30" x2="58" y2="30" stroke="#252525" stroke-width="4"/>
        <path d="M33 30L41.25 21.3397L41.25 38.6603L33 30Z" fill="#252525"/>
        <line x1="30" y1="24" x2="30" y2="2" stroke="#252525" stroke-width="4"/>
        <path d="M30 27L21.3397 18.75L38.6603 18.75L30 27Z" fill="#252525"/>
        <line x1="30" y1="36" x2="30" y2="58" stroke="#252525" stroke-width="4"/>
        <path d="M30 33L38.6603 41.25L21.3397 41.25L30 33Z" fill="#252525"/>
        <line x1="23" y1="30" x2="37" y2="30" stroke="#252525" stroke-width="2"/>
        <line x1="30" y1="23" x2="30" y2="37" stroke="#252525" stroke-width="2"/>
    </symbol>

    <symbol id="footer__logo-dark" viewBox="0 0 309 61" fill="none">
        <path d="M78.375 44.3636V56H76.625V45.8636H71.1477V56H69.3977V44.3636H78.375ZM80.9233 59.2727V47.2727H82.5824V48.6875H82.7244C82.8229 48.5057 82.965 48.2955 83.1506 48.0568C83.3362 47.8182 83.5938 47.6098 83.9233 47.4318C84.2528 47.25 84.6884 47.1591 85.2301 47.1591C85.9347 47.1591 86.5634 47.3371 87.1165 47.6932C87.6695 48.0492 88.1032 48.5625 88.4176 49.233C88.7358 49.9034 88.8949 50.7102 88.8949 51.6534C88.8949 52.5966 88.7377 53.4053 88.4233 54.0795C88.1089 54.75 87.6771 55.267 87.1278 55.6307C86.5786 55.9905 85.9517 56.1705 85.2472 56.1705C84.7169 56.1705 84.2831 56.0814 83.946 55.9034C83.6127 55.7254 83.3513 55.517 83.1619 55.2784C82.9725 55.0398 82.8267 54.8277 82.7244 54.642H82.6222V59.2727H80.9233ZM82.5881 51.6364C82.5881 52.25 82.6771 52.7879 82.8551 53.25C83.0331 53.7121 83.2907 54.0739 83.6278 54.3352C83.965 54.5928 84.3778 54.7216 84.8665 54.7216C85.3741 54.7216 85.7983 54.5871 86.1392 54.3182C86.4801 54.0455 86.7377 53.6761 86.9119 53.2102C87.09 52.7443 87.179 52.2197 87.179 51.6364C87.179 51.0606 87.0919 50.5436 86.9176 50.0852C86.7472 49.6269 86.4896 49.2652 86.1449 49C85.804 48.7348 85.3778 48.6023 84.8665 48.6023C84.3741 48.6023 83.9574 48.7292 83.6165 48.983C83.2794 49.2367 83.0237 49.5909 82.8494 50.0455C82.6752 50.5 82.5881 51.0303 82.5881 51.6364ZM94.4744 56.1761C93.6563 56.1761 92.9422 55.9886 92.3324 55.6136C91.7225 55.2386 91.2491 54.714 90.9119 54.0398C90.5748 53.3655 90.4062 52.5777 90.4062 51.6761C90.4062 50.7708 90.5748 49.9792 90.9119 49.3011C91.2491 48.6231 91.7225 48.0966 92.3324 47.7216C92.9422 47.3466 93.6563 47.1591 94.4744 47.1591C95.2926 47.1591 96.0066 47.3466 96.6165 47.7216C97.2263 48.0966 97.6998 48.6231 98.0369 49.3011C98.3741 49.9792 98.5426 50.7708 98.5426 51.6761C98.5426 52.5777 98.3741 53.3655 98.0369 54.0398C97.6998 54.714 97.2263 55.2386 96.6165 55.6136C96.0066 55.9886 95.2926 56.1761 94.4744 56.1761ZM94.4801 54.75C95.0104 54.75 95.4498 54.6098 95.7983 54.3295C96.1468 54.0492 96.4044 53.6761 96.571 53.2102C96.7415 52.7443 96.8267 52.2311 96.8267 51.6705C96.8267 51.1136 96.7415 50.6023 96.571 50.1364C96.4044 49.6667 96.1468 49.2898 95.7983 49.0057C95.4498 48.7216 95.0104 48.5795 94.4801 48.5795C93.946 48.5795 93.5028 48.7216 93.1506 49.0057C92.8021 49.2898 92.5426 49.6667 92.3722 50.1364C92.2055 50.6023 92.1222 51.1136 92.1222 51.6705C92.1222 52.2311 92.2055 52.7443 92.3722 53.2102C92.5426 53.6761 92.8021 54.0492 93.1506 54.3295C93.5028 54.6098 93.946 54.75 94.4801 54.75ZM104.195 58.9716V44.3636H105.893V58.9716H104.195ZM104.195 56.1761C103.577 56.1761 103.015 56.0701 102.507 55.858C102 55.642 101.562 55.3352 101.195 54.9375C100.827 54.5398 100.543 54.0644 100.342 53.5114C100.145 52.9583 100.047 52.3466 100.047 51.6761C100.047 50.9981 100.145 50.3826 100.342 49.8295C100.543 49.2765 100.827 48.8011 101.195 48.4034C101.562 48.0057 102 47.6989 102.507 47.483C103.015 47.267 103.577 47.1591 104.195 47.1591H104.615V56.1761H104.195ZM104.195 54.7443H104.433V48.5909H104.195C103.786 48.5909 103.429 48.6742 103.126 48.8409C102.823 49.0038 102.571 49.2292 102.371 49.517C102.17 49.8011 102.018 50.1288 101.916 50.5C101.818 50.8712 101.768 51.2633 101.768 51.6761C101.768 52.2292 101.857 52.7386 102.036 53.2045C102.214 53.6667 102.482 54.0398 102.842 54.3239C103.202 54.6042 103.653 54.7443 104.195 54.7443ZM105.893 56.1761H105.467V47.1591H105.893C106.511 47.1591 107.073 47.267 107.581 47.483C108.089 47.6989 108.524 48.0057 108.888 48.4034C109.255 48.8011 109.537 49.2765 109.734 49.8295C109.935 50.3826 110.036 50.9981 110.036 51.6761C110.036 52.3466 109.935 52.9583 109.734 53.5114C109.537 54.0644 109.255 54.5398 108.888 54.9375C108.524 55.3352 108.089 55.642 107.581 55.858C107.073 56.0701 106.511 56.1761 105.893 56.1761ZM105.893 54.7443C106.303 54.7443 106.659 54.6648 106.962 54.5057C107.265 54.3428 107.517 54.1193 107.717 53.8352C107.918 53.5473 108.068 53.2197 108.166 52.8523C108.265 52.4811 108.314 52.089 108.314 51.6761C108.314 51.1269 108.225 50.6193 108.047 50.1534C107.873 49.6837 107.606 49.3068 107.246 49.0227C106.886 48.7348 106.435 48.5909 105.893 48.5909H105.649V54.7443H105.893ZM110.845 45.875V44.3636H119.851V45.875H116.22V56H114.47V45.875H110.845ZM124.2 56.1761C123.34 56.1761 122.6 55.9924 121.979 55.625C121.361 55.2538 120.884 54.733 120.547 54.0625C120.214 53.3883 120.047 52.5985 120.047 51.6932C120.047 50.7992 120.214 50.0114 120.547 49.3295C120.884 48.6477 121.354 48.1155 121.956 47.733C122.562 47.3504 123.27 47.1591 124.081 47.1591C124.573 47.1591 125.051 47.2405 125.513 47.4034C125.975 47.5663 126.39 47.822 126.757 48.1705C127.125 48.5189 127.414 48.9716 127.626 49.5284C127.839 50.0814 127.945 50.7538 127.945 51.5455V52.1477H121.007V50.875H126.28C126.28 50.428 126.189 50.0322 126.007 49.6875C125.825 49.339 125.57 49.0644 125.24 48.8636C124.914 48.6629 124.532 48.5625 124.092 48.5625C123.615 48.5625 123.198 48.6799 122.842 48.9148C122.49 49.1458 122.217 49.4489 122.024 49.8239C121.835 50.1951 121.74 50.5985 121.74 51.0341V52.0284C121.74 52.6117 121.842 53.108 122.047 53.517C122.255 53.9261 122.545 54.2386 122.916 54.4545C123.287 54.6667 123.721 54.7727 124.217 54.7727C124.539 54.7727 124.833 54.7273 125.098 54.6364C125.363 54.5417 125.592 54.4015 125.786 54.2159C125.979 54.0303 126.126 53.8011 126.229 53.5284L127.837 53.8182C127.708 54.2917 127.477 54.7064 127.143 55.0625C126.814 55.4148 126.399 55.6894 125.899 55.8864C125.403 56.0795 124.837 56.1761 124.2 56.1761ZM130.967 47.2727L132.893 50.6705L134.837 47.2727H136.695L133.973 51.6364L136.717 56H134.859L132.893 52.7386L130.933 56H129.07L131.786 51.6364L129.104 47.2727H130.967ZM146.081 49.5795V51.0682H141.212V49.5795H146.081ZM138.206 52.3068H139.99C140.089 53.072 140.342 53.6572 140.751 54.0625C141.164 54.4678 141.806 54.6705 142.678 54.6705C143.321 54.6705 143.852 54.5 144.268 54.1591C144.685 53.8144 144.994 53.3485 145.195 52.7614C145.399 52.1742 145.501 51.5152 145.501 50.7841V49.6023C145.501 48.8144 145.388 48.1288 145.161 47.5455C144.933 46.9621 144.602 46.5114 144.166 46.1932C143.734 45.875 143.206 45.7159 142.581 45.7159C142.017 45.7159 141.554 45.8125 141.195 46.0057C140.835 46.1989 140.558 46.4754 140.365 46.8352C140.176 47.1913 140.051 47.6212 139.99 48.125H138.2C138.276 47.375 138.484 46.7045 138.825 46.1136C139.17 45.5227 139.653 45.0568 140.274 44.7159C140.899 44.375 141.668 44.2045 142.581 44.2045C143.543 44.2045 144.375 44.428 145.075 44.875C145.78 45.3182 146.323 45.9432 146.706 46.75C147.089 47.5568 147.28 48.5038 147.28 49.5909V50.8011C147.28 51.8883 147.09 52.8333 146.712 53.6364C146.337 54.4394 145.804 55.0606 145.115 55.5C144.426 55.9394 143.613 56.1591 142.678 56.1591C141.742 56.1591 140.956 55.9924 140.32 55.6591C139.683 55.322 139.191 54.8636 138.842 54.2841C138.494 53.7008 138.282 53.0417 138.206 52.3068ZM149.33 56V47.2727H151.028V50.9318H151.847L154.727 47.2727H156.83L153.449 51.517L156.869 56H154.761L152.131 52.5114H151.028V56H149.33ZM161.506 56.1761C160.661 56.1761 159.934 55.9848 159.324 55.6023C158.718 55.2159 158.252 54.6837 157.926 54.0057C157.6 53.3277 157.438 52.5511 157.438 51.6761C157.438 50.7898 157.604 50.0076 157.938 49.3295C158.271 48.6477 158.741 48.1155 159.347 47.733C159.953 47.3504 160.667 47.1591 161.489 47.1591C162.152 47.1591 162.742 47.2822 163.261 47.5284C163.78 47.7708 164.199 48.1117 164.517 48.5511C164.839 48.9905 165.03 49.5038 165.091 50.0909H163.438C163.347 49.6818 163.138 49.3295 162.812 49.0341C162.491 48.7386 162.059 48.5909 161.517 48.5909C161.044 48.5909 160.629 48.7159 160.273 48.9659C159.92 49.2121 159.646 49.5644 159.449 50.0227C159.252 50.4773 159.153 51.0152 159.153 51.6364C159.153 52.2727 159.25 52.822 159.443 53.2841C159.636 53.7462 159.909 54.1042 160.261 54.358C160.617 54.6117 161.036 54.7386 161.517 54.7386C161.839 54.7386 162.131 54.6799 162.392 54.5625C162.657 54.4413 162.879 54.2689 163.057 54.0455C163.239 53.822 163.366 53.553 163.438 53.2386H165.091C165.03 53.803 164.847 54.3068 164.54 54.75C164.233 55.1932 163.822 55.5417 163.307 55.7955C162.795 56.0492 162.195 56.1761 161.506 56.1761ZM166.908 56V47.2727H174.027V56H172.362V48.7386H168.561V56H166.908ZM180.06 56.1761C179.2 56.1761 178.459 55.9924 177.838 55.625C177.221 55.2538 176.743 54.733 176.406 54.0625C176.073 53.3883 175.906 52.5985 175.906 51.6932C175.906 50.7992 176.073 50.0114 176.406 49.3295C176.743 48.6477 177.213 48.1155 177.815 47.733C178.421 47.3504 179.13 47.1591 179.94 47.1591C180.433 47.1591 180.91 47.2405 181.372 47.4034C181.834 47.5663 182.249 47.822 182.616 48.1705C182.984 48.5189 183.274 48.9716 183.486 49.5284C183.698 50.0814 183.804 50.7538 183.804 51.5455V52.1477H176.866V50.875H182.139C182.139 50.428 182.048 50.0322 181.866 49.6875C181.685 49.339 181.429 49.0644 181.099 48.8636C180.774 48.6629 180.391 48.5625 179.952 48.5625C179.474 48.5625 179.058 48.6799 178.702 48.9148C178.349 49.1458 178.077 49.4489 177.884 49.8239C177.694 50.1951 177.599 50.5985 177.599 51.0341V52.0284C177.599 52.6117 177.702 53.108 177.906 53.517C178.115 53.9261 178.404 54.2386 178.776 54.4545C179.147 54.6667 179.58 54.7727 180.077 54.7727C180.399 54.7727 180.692 54.7273 180.957 54.6364C181.223 54.5417 181.452 54.4015 181.645 54.2159C181.838 54.0303 181.986 53.8011 182.088 53.5284L183.696 53.8182C183.567 54.2917 183.336 54.7064 183.003 55.0625C182.673 55.4148 182.259 55.6894 181.759 55.8864C181.262 56.0795 180.696 56.1761 180.06 56.1761ZM185.689 59.2727V47.2727H187.348V48.6875H187.49C187.589 48.5057 187.731 48.2955 187.916 48.0568C188.102 47.8182 188.359 47.6098 188.689 47.4318C189.018 47.25 189.454 47.1591 189.996 47.1591C190.7 47.1591 191.329 47.3371 191.882 47.6932C192.435 48.0492 192.869 48.5625 193.183 49.233C193.501 49.9034 193.661 50.7102 193.661 51.6534C193.661 52.5966 193.503 53.4053 193.189 54.0795C192.875 54.75 192.443 55.267 191.893 55.6307C191.344 55.9905 190.717 56.1705 190.013 56.1705C189.482 56.1705 189.049 56.0814 188.712 55.9034C188.378 55.7254 188.117 55.517 187.928 55.2784C187.738 55.0398 187.592 54.8277 187.49 54.642H187.388V59.2727H185.689ZM187.354 51.6364C187.354 52.25 187.443 52.7879 187.621 53.25C187.799 53.7121 188.056 54.0739 188.393 54.3352C188.731 54.5928 189.143 54.7216 189.632 54.7216C190.14 54.7216 190.564 54.5871 190.905 54.3182C191.246 54.0455 191.503 53.6761 191.678 53.2102C191.856 52.7443 191.945 52.2197 191.945 51.6364C191.945 51.0606 191.857 50.5436 191.683 50.0852C191.513 49.6269 191.255 49.2652 190.911 49C190.57 48.7348 190.143 48.6023 189.632 48.6023C189.14 48.6023 188.723 48.7292 188.382 48.983C188.045 49.2367 187.789 49.5909 187.615 50.0455C187.441 50.5 187.354 51.0303 187.354 51.6364ZM194.513 48.7386V47.2727H201.876V48.7386H199.03V56H197.371V48.7386H194.513Z" fill="#fff"/>
        <path d="M79.6023 15.4489L79.4489 19.75H77.6989V17H76.8807V15.4489H79.6023ZM69.2784 17V5.36364H70.9602V15.4773H76.5739V5.36364H78.2614V17H69.2784ZM85.1534 17.1761C84.2936 17.1761 83.553 16.9924 82.9318 16.625C82.3144 16.2538 81.8371 15.733 81.5 15.0625C81.1667 14.3883 81 13.5985 81 12.6932C81 11.7992 81.1667 11.0114 81.5 10.3295C81.8371 9.64773 82.3068 9.11553 82.9091 8.73295C83.5152 8.35038 84.2235 8.15909 85.0341 8.15909C85.5265 8.15909 86.0038 8.24053 86.4659 8.40341C86.928 8.56629 87.3428 8.82197 87.7102 9.17045C88.0777 9.51894 88.3674 9.97159 88.5795 10.5284C88.7917 11.0814 88.8977 11.7538 88.8977 12.5455V13.1477H81.9602V11.875H87.233C87.233 11.428 87.142 11.0322 86.9602 10.6875C86.7784 10.339 86.5227 10.0644 86.1932 9.86364C85.8674 9.66288 85.4848 9.5625 85.0455 9.5625C84.5682 9.5625 84.1515 9.67992 83.7955 9.91477C83.4432 10.1458 83.1705 10.4489 82.9773 10.8239C82.7879 11.1951 82.6932 11.5985 82.6932 12.0341V13.0284C82.6932 13.6117 82.7955 14.108 83 14.517C83.2083 14.9261 83.4981 15.2386 83.8693 15.4545C84.2405 15.6667 84.6742 15.7727 85.1705 15.7727C85.4924 15.7727 85.786 15.7273 86.0511 15.6364C86.3163 15.5417 86.5455 15.4015 86.7386 15.2159C86.9318 15.0303 87.0795 14.8011 87.1818 14.5284L88.7898 14.8182C88.661 15.2917 88.4299 15.7064 88.0966 16.0625C87.767 16.4148 87.3523 16.6894 86.8523 16.8864C86.3561 17.0795 85.7898 17.1761 85.1534 17.1761ZM96.6974 11.9034V13.375H91.9702V11.9034H96.6974ZM92.4474 8.27273V17H90.7827V8.27273H92.4474ZM97.8849 8.27273V17H96.2259V8.27273H97.8849ZM99.0753 9.73864V8.27273H106.439V9.73864H103.592V17H101.933V9.73864H99.0753ZM108.236 20.2727V8.27273H109.895V9.6875H110.037C110.135 9.50568 110.277 9.29545 110.463 9.05682C110.649 8.81818 110.906 8.60985 111.236 8.43182C111.565 8.25 112.001 8.15909 112.543 8.15909C113.247 8.15909 113.876 8.33712 114.429 8.69318C114.982 9.04924 115.416 9.5625 115.73 10.233C116.048 10.9034 116.207 11.7102 116.207 12.6534C116.207 13.5966 116.05 14.4053 115.736 15.0795C115.421 15.75 114.99 16.267 114.44 16.6307C113.891 16.9905 113.264 17.1705 112.56 17.1705C112.029 17.1705 111.596 17.0814 111.259 16.9034C110.925 16.7254 110.664 16.517 110.474 16.2784C110.285 16.0398 110.139 15.8277 110.037 15.642H109.935V20.2727H108.236ZM109.901 12.6364C109.901 13.25 109.99 13.7879 110.168 14.25C110.346 14.7121 110.603 15.0739 110.94 15.3352C111.277 15.5928 111.69 15.7216 112.179 15.7216C112.687 15.7216 113.111 15.5871 113.452 15.3182C113.793 15.0455 114.05 14.6761 114.224 14.2102C114.402 13.7443 114.491 13.2197 114.491 12.6364C114.491 12.0606 114.404 11.5436 114.23 11.0852C114.06 10.6269 113.802 10.2652 113.457 10C113.116 9.73485 112.69 9.60227 112.179 9.60227C111.687 9.60227 111.27 9.72917 110.929 9.98295C110.592 10.2367 110.336 10.5909 110.162 11.0455C109.988 11.5 109.901 12.0303 109.901 12.6364ZM129.737 5.36364V6.875H124.237V17H122.482V5.36364H129.737ZM130.673 20.2727V8.27273H132.332V9.6875H132.474C132.573 9.50568 132.715 9.29545 132.901 9.05682C133.086 8.81818 133.344 8.60985 133.673 8.43182C134.003 8.25 134.438 8.15909 134.98 8.15909C135.685 8.15909 136.313 8.33712 136.866 8.69318C137.42 9.04924 137.853 9.5625 138.168 10.233C138.486 10.9034 138.645 11.7102 138.645 12.6534C138.645 13.5966 138.488 14.4053 138.173 15.0795C137.859 15.75 137.427 16.267 136.878 16.6307C136.329 16.9905 135.702 17.1705 134.997 17.1705C134.467 17.1705 134.033 17.0814 133.696 16.9034C133.363 16.7254 133.101 16.517 132.912 16.2784C132.723 16.0398 132.577 15.8277 132.474 15.642H132.372V20.2727H130.673ZM132.338 12.6364C132.338 13.25 132.427 13.7879 132.605 14.25C132.783 14.7121 133.041 15.0739 133.378 15.3352C133.715 15.5928 134.128 15.7216 134.616 15.7216C135.124 15.7216 135.548 15.5871 135.889 15.3182C136.23 15.0455 136.488 14.6761 136.662 14.2102C136.84 13.7443 136.929 13.2197 136.929 12.6364C136.929 12.0606 136.842 11.5436 136.668 11.0852C136.497 10.6269 136.24 10.2652 135.895 10C135.554 9.73485 135.128 9.60227 134.616 9.60227C134.124 9.60227 133.707 9.72917 133.366 9.98295C133.029 10.2367 132.774 10.5909 132.599 11.0455C132.425 11.5 132.338 12.0303 132.338 12.6364ZM141.325 20.2727C141.071 20.2727 140.84 20.2519 140.632 20.2102C140.424 20.1723 140.268 20.1307 140.166 20.0852L140.575 18.6932C140.886 18.7765 141.162 18.8125 141.405 18.8011C141.647 18.7898 141.861 18.6989 142.047 18.5284C142.236 18.358 142.403 18.0795 142.547 17.6932L142.757 17.1136L139.564 8.27273H141.382L143.592 15.0455H143.683L145.893 8.27273H147.717L144.121 18.1648C143.954 18.6193 143.742 19.0038 143.484 19.3182C143.227 19.6364 142.92 19.875 142.564 20.0341C142.208 20.1932 141.795 20.2727 141.325 20.2727ZM148.797 14.6932H150.536C150.558 15.0492 150.719 15.3239 151.018 15.517C151.321 15.7102 151.714 15.8068 152.195 15.8068C152.683 15.8068 153.1 15.7027 153.445 15.4943C153.789 15.2822 153.962 14.9545 153.962 14.5114C153.962 14.2462 153.895 14.0152 153.763 13.8182C153.634 13.6174 153.45 13.4621 153.212 13.3523C152.977 13.2424 152.698 13.1875 152.376 13.1875H150.956V11.8523H152.376C152.857 11.8523 153.217 11.7424 153.456 11.5227C153.695 11.303 153.814 11.0284 153.814 10.6989C153.814 10.3428 153.685 10.0568 153.428 9.84091C153.174 9.62121 152.82 9.51136 152.365 9.51136C151.903 9.51136 151.518 9.61553 151.212 9.82386C150.905 10.0284 150.744 10.2936 150.729 10.6193H149.013C149.024 10.1307 149.172 9.70265 149.456 9.33523C149.744 8.96402 150.13 8.67614 150.615 8.47159C151.104 8.26326 151.659 8.15909 152.28 8.15909C152.928 8.15909 153.488 8.26326 153.962 8.47159C154.435 8.67992 154.801 8.9678 155.058 9.33523C155.32 9.70265 155.45 10.125 155.45 10.6023C155.45 11.0833 155.306 11.4773 155.018 11.7841C154.734 12.0871 154.363 12.3049 153.905 12.4375V12.5284C154.242 12.5511 154.541 12.6534 154.803 12.8352C155.064 13.017 155.268 13.2576 155.416 13.5568C155.564 13.8561 155.638 14.1951 155.638 14.5739C155.638 15.108 155.49 15.5701 155.195 15.9602C154.903 16.3504 154.498 16.6515 153.979 16.8636C153.464 17.072 152.875 17.1761 152.212 17.1761C151.568 17.1761 150.99 17.0758 150.479 16.875C149.971 16.6705 149.568 16.3826 149.268 16.0114C148.973 15.6402 148.816 15.2008 148.797 14.6932ZM161.068 17.1761C160.25 17.1761 159.536 16.9886 158.926 16.6136C158.316 16.2386 157.843 15.714 157.506 15.0398C157.169 14.3655 157 13.5777 157 12.6761C157 11.7708 157.169 10.9792 157.506 10.3011C157.843 9.62311 158.316 9.09659 158.926 8.72159C159.536 8.34659 160.25 8.15909 161.068 8.15909C161.886 8.15909 162.6 8.34659 163.21 8.72159C163.82 9.09659 164.294 9.62311 164.631 10.3011C164.968 10.9792 165.136 11.7708 165.136 12.6761C165.136 13.5777 164.968 14.3655 164.631 15.0398C164.294 15.714 163.82 16.2386 163.21 16.6136C162.6 16.9886 161.886 17.1761 161.068 17.1761ZM161.074 15.75C161.604 15.75 162.044 15.6098 162.392 15.3295C162.741 15.0492 162.998 14.6761 163.165 14.2102C163.335 13.7443 163.42 13.2311 163.42 12.6705C163.42 12.1136 163.335 11.6023 163.165 11.1364C162.998 10.6667 162.741 10.2898 162.392 10.0057C162.044 9.72159 161.604 9.57955 161.074 9.57955C160.54 9.57955 160.097 9.72159 159.744 10.0057C159.396 10.2898 159.136 10.6667 158.966 11.1364C158.799 11.6023 158.716 12.1136 158.716 12.6705C158.716 13.2311 158.799 13.7443 158.966 14.2102C159.136 14.6761 159.396 15.0492 159.744 15.3295C160.097 15.6098 160.54 15.75 161.074 15.75ZM167.033 17V8.27273H174.152V17H172.487V9.73864H168.686V17H167.033ZM180.099 17.1761C179.281 17.1761 178.567 16.9886 177.957 16.6136C177.348 16.2386 176.874 15.714 176.537 15.0398C176.2 14.3655 176.031 13.5777 176.031 12.6761C176.031 11.7708 176.2 10.9792 176.537 10.3011C176.874 9.62311 177.348 9.09659 177.957 8.72159C178.567 8.34659 179.281 8.15909 180.099 8.15909C180.918 8.15909 181.632 8.34659 182.241 8.72159C182.851 9.09659 183.325 9.62311 183.662 10.3011C183.999 10.9792 184.168 11.7708 184.168 12.6761C184.168 13.5777 183.999 14.3655 183.662 15.0398C183.325 15.714 182.851 16.2386 182.241 16.6136C181.632 16.9886 180.918 17.1761 180.099 17.1761ZM180.105 15.75C180.635 15.75 181.075 15.6098 181.423 15.3295C181.772 15.0492 182.029 14.6761 182.196 14.2102C182.366 13.7443 182.452 13.2311 182.452 12.6705C182.452 12.1136 182.366 11.6023 182.196 11.1364C182.029 10.6667 181.772 10.2898 181.423 10.0057C181.075 9.72159 180.635 9.57955 180.105 9.57955C179.571 9.57955 179.128 9.72159 178.776 10.0057C178.427 10.2898 178.168 10.6667 177.997 11.1364C177.83 11.6023 177.747 12.1136 177.747 12.6705C177.747 13.2311 177.83 13.7443 177.997 14.2102C178.168 14.6761 178.427 15.0492 178.776 15.3295C179.128 15.6098 179.571 15.75 180.105 15.75ZM185.212 19.517V15.5284H185.922C186.104 15.3617 186.257 15.1629 186.382 14.9318C186.511 14.7008 186.619 14.4261 186.706 14.108C186.797 13.7898 186.873 13.4186 186.933 12.9943C186.994 12.5663 187.047 12.0777 187.092 11.5284L187.365 8.27273H193.297V15.5284H194.638V19.517H192.979V17H186.893V19.517H185.212ZM187.74 15.5284H191.638V9.72727H188.888L188.706 11.5284C188.619 12.4451 188.509 13.2405 188.376 13.9148C188.244 14.5852 188.032 15.1231 187.74 15.5284ZM197.997 8.27273V9.74432H195.628V8.27273H197.997ZM199.276 11.2727H201.81C202.878 11.2727 203.7 11.5379 204.276 12.0682C204.851 12.5985 205.141 13.2822 205.145 14.1193C205.141 14.6648 205.01 15.1553 204.753 15.5909C204.495 16.0265 204.118 16.3712 203.622 16.625C203.126 16.875 202.522 17 201.81 17H197.997V8.27273H199.662V15.5341H201.81C202.298 15.5341 202.7 15.4072 203.014 15.1534C203.329 14.8958 203.486 14.5682 203.486 14.1705C203.486 13.75 203.329 13.4072 203.014 13.142C202.7 12.8731 202.298 12.7386 201.81 12.7386H199.276V11.2727ZM210.81 17.1761C209.95 17.1761 209.209 16.9924 208.588 16.625C207.971 16.2538 207.493 15.733 207.156 15.0625C206.823 14.3883 206.656 13.5985 206.656 12.6932C206.656 11.7992 206.823 11.0114 207.156 10.3295C207.493 9.64773 207.963 9.11553 208.565 8.73295C209.171 8.35038 209.88 8.15909 210.69 8.15909C211.183 8.15909 211.66 8.24053 212.122 8.40341C212.584 8.56629 212.999 8.82197 213.366 9.17045C213.734 9.51894 214.024 9.97159 214.236 10.5284C214.448 11.0814 214.554 11.7538 214.554 12.5455V13.1477H207.616V11.875H212.889C212.889 11.428 212.798 11.0322 212.616 10.6875C212.435 10.339 212.179 10.0644 211.849 9.86364C211.524 9.66288 211.141 9.5625 210.702 9.5625C210.224 9.5625 209.808 9.67992 209.452 9.91477C209.099 10.1458 208.827 10.4489 208.634 10.8239C208.444 11.1951 208.349 11.5985 208.349 12.0341V13.0284C208.349 13.6117 208.452 14.108 208.656 14.517C208.865 14.9261 209.154 15.2386 209.526 15.4545C209.897 15.6667 210.33 15.7727 210.827 15.7727C211.149 15.7727 211.442 15.7273 211.707 15.6364C211.973 15.5417 212.202 15.4015 212.395 15.2159C212.588 15.0303 212.736 14.8011 212.838 14.5284L214.446 14.8182C214.317 15.2917 214.086 15.7064 213.753 16.0625C213.423 16.4148 213.009 16.6894 212.509 16.8864C212.012 17.0795 211.446 17.1761 210.81 17.1761ZM221.337 14.8977L224.155 8.27273H225.621L221.967 17H220.706L217.126 8.27273H218.575L221.337 14.8977ZM218.104 8.27273V17H216.439V8.27273H218.104ZM224.615 17V8.27273H226.268V17H224.615ZM234.447 11.9034V13.375H229.72V11.9034H234.447ZM230.197 8.27273V17H228.533V8.27273H230.197ZM235.635 8.27273V17H233.976V8.27273H235.635ZM239.186 11.2727H241.72C242.788 11.2727 243.61 11.5379 244.186 12.0682C244.762 12.5985 245.05 13.2822 245.05 14.1193C245.05 14.6648 244.921 15.1553 244.663 15.5909C244.406 16.0265 244.029 16.3712 243.533 16.625C243.036 16.875 242.432 17 241.72 17H237.908V8.27273H239.572V15.5341H241.72C242.209 15.5341 242.61 15.4072 242.925 15.1534C243.239 14.8958 243.396 14.5682 243.396 14.1705C243.396 13.75 243.239 13.4072 242.925 13.142C242.61 12.8731 242.209 12.7386 241.72 12.7386H239.186V11.2727ZM246.288 17V8.27273H247.987V17H246.288ZM251.608 8.27273L253.534 11.6705L255.477 8.27273H257.335L254.614 12.6364L257.358 17H255.5L253.534 13.7386L251.574 17H249.71L252.426 12.6364L249.744 8.27273H251.608ZM68.7045 25.875V24.3636H77.7102V25.875H74.0795V36H72.3295V25.875H68.7045ZM82.0597 36.1761C81.1998 36.1761 80.4593 35.9924 79.8381 35.625C79.2206 35.2538 78.7434 34.733 78.4062 34.0625C78.0729 33.3883 77.9062 32.5985 77.9062 31.6932C77.9062 30.7992 78.0729 30.0114 78.4062 29.3295C78.7434 28.6477 79.2131 28.1155 79.8153 27.733C80.4214 27.3504 81.1297 27.1591 81.9403 27.1591C82.4328 27.1591 82.91 27.2405 83.3722 27.4034C83.8343 27.5663 84.2491 27.822 84.6165 28.1705C84.9839 28.5189 85.2737 28.9716 85.4858 29.5284C85.6979 30.0814 85.804 30.7538 85.804 31.5455V32.1477H78.8665V30.875H84.1392C84.1392 30.428 84.0483 30.0322 83.8665 29.6875C83.6847 29.339 83.429 29.0644 83.0994 28.8636C82.7737 28.6629 82.3911 28.5625 81.9517 28.5625C81.4744 28.5625 81.0578 28.6799 80.7017 28.9148C80.3494 29.1458 80.0767 29.4489 79.8835 29.8239C79.6941 30.1951 79.5994 30.5985 79.5994 31.0341V32.0284C79.5994 32.6117 79.7017 33.108 79.9062 33.517C80.1146 33.9261 80.4044 34.2386 80.7756 34.4545C81.1468 34.6667 81.5805 34.7727 82.0767 34.7727C82.3987 34.7727 82.6922 34.7273 82.9574 34.6364C83.2225 34.5417 83.4517 34.4015 83.6449 34.2159C83.8381 34.0303 83.9858 33.8011 84.0881 33.5284L85.696 33.8182C85.5672 34.2917 85.3362 34.7064 85.0028 35.0625C84.6733 35.4148 84.2585 35.6894 83.7585 35.8864C83.2623 36.0795 82.696 36.1761 82.0597 36.1761ZM88.8267 27.2727L90.7528 30.6705L92.696 27.2727H94.554L91.8324 31.6364L94.5767 36H92.7188L90.7528 32.7386L88.7926 36H86.929L89.6449 31.6364L86.9631 27.2727H88.8267ZM102.213 30.9034V32.375H97.4858V30.9034H102.213ZM97.9631 27.2727V36H96.2983V27.2727H97.9631ZM103.401 27.2727V36H101.741V27.2727H103.401ZM109.349 36.1761C108.531 36.1761 107.817 35.9886 107.207 35.6136C106.598 35.2386 106.124 34.714 105.787 34.0398C105.45 33.3655 105.281 32.5777 105.281 31.6761C105.281 30.7708 105.45 29.9792 105.787 29.3011C106.124 28.6231 106.598 28.0966 107.207 27.7216C107.817 27.3466 108.531 27.1591 109.349 27.1591C110.168 27.1591 110.882 27.3466 111.491 27.7216C112.101 28.0966 112.575 28.6231 112.912 29.3011C113.249 29.9792 113.418 30.7708 113.418 31.6761C113.418 32.5777 113.249 33.3655 112.912 34.0398C112.575 34.714 112.101 35.2386 111.491 35.6136C110.882 35.9886 110.168 36.1761 109.349 36.1761ZM109.355 34.75C109.885 34.75 110.325 34.6098 110.673 34.3295C111.022 34.0492 111.279 33.6761 111.446 33.2102C111.616 32.7443 111.702 32.2311 111.702 31.6705C111.702 31.1136 111.616 30.6023 111.446 30.1364C111.279 29.6667 111.022 29.2898 110.673 29.0057C110.325 28.7216 109.885 28.5795 109.355 28.5795C108.821 28.5795 108.378 28.7216 108.026 29.0057C107.677 29.2898 107.418 29.6667 107.247 30.1364C107.08 30.6023 106.997 31.1136 106.997 31.6705C106.997 32.2311 107.08 32.7443 107.247 33.2102C107.418 33.6761 107.677 34.0492 108.026 34.3295C108.378 34.6098 108.821 34.75 109.355 34.75ZM114.626 36L114.621 34.5284H114.933C115.176 34.5284 115.378 34.4773 115.541 34.375C115.708 34.2689 115.844 34.0909 115.95 33.8409C116.056 33.5909 116.138 33.2462 116.195 32.8068C116.251 32.3636 116.293 31.8068 116.32 31.1364L116.473 27.2727H122.564V36H120.899V28.7386H118.047L117.911 31.7045C117.876 32.4242 117.803 33.053 117.689 33.5909C117.579 34.1288 117.418 34.5777 117.206 34.9375C116.994 35.2936 116.721 35.5606 116.388 35.7386C116.054 35.9129 115.649 36 115.172 36H114.626ZM128.506 36.1761C127.688 36.1761 126.973 35.9886 126.364 35.6136C125.754 35.2386 125.28 34.714 124.943 34.0398C124.606 33.3655 124.438 32.5777 124.438 31.6761C124.438 30.7708 124.606 29.9792 124.943 29.3011C125.28 28.6231 125.754 28.0966 126.364 27.7216C126.973 27.3466 127.688 27.1591 128.506 27.1591C129.324 27.1591 130.038 27.3466 130.648 27.7216C131.258 28.0966 131.731 28.6231 132.068 29.3011C132.405 29.9792 132.574 30.7708 132.574 31.6761C132.574 32.5777 132.405 33.3655 132.068 34.0398C131.731 34.714 131.258 35.2386 130.648 35.6136C130.038 35.9886 129.324 36.1761 128.506 36.1761ZM128.511 34.75C129.042 34.75 129.481 34.6098 129.83 34.3295C130.178 34.0492 130.436 33.6761 130.602 33.2102C130.773 32.7443 130.858 32.2311 130.858 31.6705C130.858 31.1136 130.773 30.6023 130.602 30.1364C130.436 29.6667 130.178 29.2898 129.83 29.0057C129.481 28.7216 129.042 28.5795 128.511 28.5795C127.977 28.5795 127.534 28.7216 127.182 29.0057C126.833 29.2898 126.574 29.6667 126.403 30.1364C126.237 30.6023 126.153 31.1136 126.153 31.6705C126.153 32.2311 126.237 32.7443 126.403 33.2102C126.574 33.6761 126.833 34.0492 127.182 34.3295C127.534 34.6098 127.977 34.75 128.511 34.75ZM140.05 27.2727V28.7386H136.146V36H134.47V27.2727H140.05ZM143.51 33.6193L147.357 27.2727H149.186V36H147.521V29.6477L143.692 36H141.845V27.2727H143.51V33.6193ZM153.135 33.6193L156.982 27.2727H158.811V36H157.146V29.6477L153.317 36H151.47V27.2727H153.135V33.6193ZM156.254 24.3182H157.652C157.652 24.9583 157.425 25.4792 156.97 25.8807C156.519 26.2784 155.91 26.4773 155.141 26.4773C154.375 26.4773 153.768 26.2784 153.317 25.8807C152.866 25.4792 152.641 24.9583 152.641 24.3182H154.033C154.033 24.6023 154.116 24.8542 154.283 25.0739C154.449 25.2898 154.735 25.3977 155.141 25.3977C155.538 25.3977 155.822 25.2898 155.993 25.0739C156.167 24.858 156.254 24.6061 156.254 24.3182Z" fill="#fff"/>
        <circle cx="30.5" cy="30.5" r="28.5" fill="#ED6B21" stroke="#252525" stroke-width="4"/>
        <circle cx="30" cy="30" r="3" fill="#252525"/>
        <line x1="24" y1="30" x2="4" y2="30" stroke="#252525" stroke-width="4"/>
        <path d="M27 30L18.75 38.6603L18.75 21.3397L27 30Z" fill="#252525"/>
        <line x1="36" y1="30" x2="58" y2="30" stroke="#252525" stroke-width="4"/>
        <path d="M33 30L41.25 21.3397L41.25 38.6603L33 30Z" fill="#252525"/>
        <line x1="30" y1="24" x2="30" y2="2" stroke="#252525" stroke-width="4"/>
        <path d="M30 27L21.3397 18.75L38.6603 18.75L30 27Z" fill="#252525"/>
        <line x1="30" y1="36" x2="30" y2="58" stroke="#252525" stroke-width="4"/>
        <path d="M30 33L38.6603 41.25L21.3397 41.25L30 33Z" fill="#252525"/>
        <line x1="23" y1="30" x2="37" y2="30" stroke="#252525" stroke-width="2"/>
        <line x1="30" y1="23" x2="30" y2="37" stroke="#252525" stroke-width="2"/>
    </symbol>

    <symbol id="gallery__link" viewBox="0 0 91 71" fill="none">
        <path fill-rule="evenodd" clip-rule="evenodd" d="M83.6292 70.5795H6.71266C3.01429 70.5795 0 67.5652 0 63.8673V6.71268C0 3.0143 3.01429 0 6.71266 0H83.6292C87.3276 0 90.3419 3.0143 90.3419 6.71268V63.8673C90.3419 67.5726 87.3276 70.58 83.6292 70.58V70.5795ZM6.71266 2.11737C4.17595 2.11737 2.11736 4.17596 2.11736 6.71268V63.8673C2.11736 66.404 4.17595 68.4626 6.71266 68.4626H83.6292C86.1659 68.4626 88.2245 66.404 88.2245 63.8679V6.71321C88.2245 4.17649 86.1659 2.1179 83.6292 2.1179H6.71266V2.11737Z" fill="white"/>
        <path fill-rule="evenodd" clip-rule="evenodd" d="M13.2929 55.7869C13.2632 55.7869 13.241 55.7869 13.2119 55.7869C10.1827 55.5592 8.05056 54.4267 6.8746 52.42C3.8529 47.2809 8.09504 38.0394 10.9034 31.915C11.4916 30.6358 11.9988 29.5255 12.3075 28.7387C12.4621 28.3267 12.8587 28.062 13.2929 28.062C13.7339 28.062 14.1236 28.3342 14.2782 28.7387C14.5869 29.5329 15.0941 30.6427 15.6755 31.9224C18.477 38.0468 22.7117 47.3026 19.6894 52.4274C18.5135 54.4272 16.3882 55.5518 13.3665 55.78C13.3442 55.7874 13.3151 55.7874 13.2929 55.7874V55.7869ZM13.2929 31.7826C13.1457 32.1061 12.9916 32.4445 12.8296 32.7976C10.3665 38.1718 6.235 47.1559 8.69758 51.3393C9.50661 52.7138 11.0061 53.4715 13.2929 53.6626C15.5648 53.4715 17.0643 52.7138 17.8728 51.3467C20.3359 47.1707 16.2187 38.1718 13.7556 32.7976C13.5941 32.4519 13.4395 32.1136 13.2929 31.7826Z" fill="white"/>
        <path fill-rule="evenodd" clip-rule="evenodd" d="M13.2777 70.5787C12.6895 70.5787 12.2188 70.1012 12.2188 69.5198L12.2193 40.494C12.2193 39.9132 12.69 39.4351 13.2782 39.4351C13.8665 39.4351 14.3372 39.9126 14.3372 40.494V69.5198C14.3372 70.1075 13.8591 70.5782 13.2782 70.5782L13.2777 70.5787Z" fill="white"/>
        <path fill-rule="evenodd" clip-rule="evenodd" d="M13.2779 49.8451C13.0429 49.8451 12.8072 49.764 12.6087 49.602L9.24865 46.8525C8.79277 46.485 8.72659 45.8158 9.10145 45.3599C9.46891 44.9114 10.1382 44.8452 10.594 45.2127L13.9541 47.9622C14.4099 48.3297 14.4761 48.999 14.1013 49.4548C13.8884 49.7127 13.5792 49.8445 13.2779 49.8445V49.8451Z" fill="white"/>
        <path fill-rule="evenodd" clip-rule="evenodd" d="M13.2819 53.6905C13.0171 53.6905 12.7524 53.5878 12.5464 53.3887C12.1276 52.9847 12.1128 52.3155 12.5247 51.8887L15.3701 48.948C15.7746 48.5287 16.4508 48.5213 16.8701 48.9263C17.2889 49.3303 17.3037 49.9996 16.8918 50.4263L14.0464 53.367C13.833 53.5804 13.554 53.6905 13.2819 53.6905Z" fill="white"/>
        <path fill-rule="evenodd" clip-rule="evenodd" d="M52.4019 70.5784C51.9752 70.5784 51.5786 70.3211 51.4166 69.9017L45.5055 54.7127C45.5055 54.7053 45.4981 54.6979 45.4981 54.691L37.5581 34.3041L20.8983 69.4247C20.6484 69.9542 20.0162 70.1749 19.4867 69.9245C18.9572 69.6746 18.7365 69.0424 18.9869 68.5129L36.6978 31.1792C36.8815 30.7969 37.2712 30.5618 37.69 30.5761C38.1093 30.5909 38.4842 30.8557 38.6383 31.2528L46.6079 51.7132L61.3558 22.1802C61.5396 21.8128 61.951 21.5846 62.3189 21.592C62.7309 21.5994 63.0904 21.8419 63.2672 22.2093L84.6097 69.0784C84.8528 69.6079 84.6172 70.2401 84.0877 70.4826C83.5582 70.7256 82.926 70.49 82.6835 69.9605L62.2596 25.113L47.6435 54.3738L53.3931 69.1366C53.6059 69.6804 53.3343 70.2983 52.79 70.5043C52.6582 70.5556 52.5258 70.5779 52.4009 70.5779L52.4019 70.5784Z" fill="white"/>
        <path fill-rule="evenodd" clip-rule="evenodd" d="M35.918 24.6299C30.242 24.6299 25.625 20.0128 25.625 14.3374C25.625 8.66145 30.242 4.04443 35.918 4.04443C41.5934 4.04443 46.2104 8.66145 46.2104 14.3374C46.2104 20.0128 41.5934 24.6299 35.918 24.6299ZM35.918 6.15386C31.4111 6.15386 27.7424 9.82259 27.7424 14.3295C27.7424 18.8358 31.4111 22.5051 35.918 22.5051C40.4243 22.5051 44.0936 18.8364 44.0936 14.3295C44.0936 9.82259 40.4248 6.15386 35.918 6.15386Z" fill="white"/>
        <path fill-rule="evenodd" clip-rule="evenodd" d="M55.2944 37.7159C54.846 37.7159 54.4266 37.4295 54.2874 36.9805C54.1111 36.4219 54.4197 35.8262 54.9783 35.6499C58.0292 34.6794 60.1026 34.9589 61.9335 35.2014C63.7713 35.4445 65.3518 35.6573 67.8959 34.7456C68.4471 34.547 69.0501 34.834 69.2487 35.3852C69.4472 35.9363 69.1603 36.5394 68.6091 36.738C65.58 37.826 63.5876 37.5613 61.6539 37.2966C59.8892 37.0615 58.2203 36.8407 55.6248 37.664C55.5073 37.7005 55.4046 37.7154 55.2944 37.7154V37.7159Z" fill="white"/>
        <path fill-rule="evenodd" clip-rule="evenodd" d="M31.8256 44.9426C31.4063 44.9426 31.0171 44.6927 30.8477 44.2882C30.6269 43.7444 30.8842 43.1265 31.4211 42.9063C33.8768 41.8992 35.5896 42.156 37.097 42.3842C38.5086 42.5971 39.7216 42.7882 41.5891 41.9209C42.1186 41.671 42.7507 41.9061 42.9932 42.4356C43.2432 42.965 43.0081 43.5972 42.4786 43.8397C40.0377 44.9718 38.3026 44.7144 36.7735 44.4793C35.3545 44.2665 34.1341 44.0754 32.2227 44.8616C32.0977 44.9135 31.9654 44.9426 31.8256 44.9426Z" fill="white"/>
    </symbol>

    <symbol id="filter" viewBox="0 0 38 39" fill="none">
        <path d="M1.1875 6.71732H19.2676C19.8125 9.19763 22.0275 11.0597 24.6691 11.0597C27.3106 11.0597 29.5256 9.19771 30.0705 6.71732H36.8125C37.4683 6.71732 38 6.18561 38 5.52982C38 4.87402 37.4683 4.34232 36.8125 4.34232H30.07C29.524 1.86326 27.306 0 24.6691 0C22.0307 0 19.8137 1.86296 19.268 4.34232H1.1875C0.531703 4.34232 0 4.87402 0 5.52982C0 6.18561 0.531703 6.71732 1.1875 6.71732ZM21.5143 5.53293L21.5144 5.52017C21.5196 3.7859 22.9347 2.37507 24.6691 2.37507C26.4009 2.37507 27.8161 3.78397 27.8236 5.51742L27.8239 5.53486C27.8211 7.2721 26.407 8.68478 24.6691 8.68478C22.9319 8.68478 21.5182 7.27351 21.5142 5.53731L21.5143 5.53293ZM36.8125 31.3194H30.07C29.5239 28.8404 27.306 26.9771 24.6691 26.9771C22.0307 26.9771 19.8137 28.8401 19.268 31.3194H1.1875C0.531703 31.3194 0 31.851 0 32.5069C0 33.1628 0.531703 33.6944 1.1875 33.6944H19.2676C19.8125 36.1747 22.0275 38.0368 24.6691 38.0368C27.3106 38.0368 29.5256 36.1747 30.0705 33.6944H36.8125C37.4683 33.6944 38 33.1628 38 32.5069C38 31.851 37.4683 31.3194 36.8125 31.3194ZM24.6691 35.6618C22.9319 35.6618 21.5182 34.2505 21.5142 32.5143L21.5143 32.51L21.5144 32.4973C21.5196 30.763 22.9347 29.3521 24.6691 29.3521C26.4009 29.3521 27.8161 30.761 27.8236 32.4944L27.8239 32.5118C27.8213 34.2493 26.4071 35.6618 24.6691 35.6618ZM36.8125 17.8309H18.7324C18.1875 15.3506 15.9725 13.4886 13.3309 13.4886C10.6894 13.4886 8.47437 15.3506 7.92946 17.8309H1.1875C0.531703 17.8309 0 18.3626 0 19.0184C0 19.6743 0.531703 20.2059 1.1875 20.2059H7.93005C8.47608 22.6849 10.694 24.5482 13.3309 24.5482C15.9693 24.5482 18.1863 22.6852 18.732 20.2059H36.8125C37.4683 20.2059 38 19.6743 38 19.0184C38 18.3626 37.4683 17.8309 36.8125 17.8309ZM16.4857 19.0153L16.4856 19.0281C16.4804 20.7623 15.0653 22.1731 13.3309 22.1731C11.5991 22.1731 10.1839 20.7643 10.1764 19.0309L10.1761 19.0135C10.1787 17.276 11.593 15.8636 13.3309 15.8636C15.0681 15.8636 16.4818 17.2748 16.4858 19.0111L16.4857 19.0153Z" fill="#ED6B21"/>
    </symbol>

  

</svg>