<svg width="38" height="39" viewBox="0 0 38 39" fill="none" xmlns="http://www.w3.org/2000/svg">
<path d="M1.1875 6.71732H19.2676C19.8125 9.19763 22.0275 11.0597 24.6691 11.0597C27.3106 11.0597 29.5256 9.19771 30.0705 6.71732H36.8125C37.4683 6.71732 38 6.18561 38 5.52982C38 4.87402 37.4683 4.34232 36.8125 4.34232H30.07C29.524 1.86326 27.306 0 24.6691 0C22.0307 0 19.8137 1.86296 19.268 4.34232H1.1875C0.531703 4.34232 0 4.87402 0 5.52982C0 6.18561 0.531703 6.71732 1.1875 6.71732ZM21.5143 5.53293L21.5144 5.52017C21.5196 3.7859 22.9347 2.37507 24.6691 2.37507C26.4009 2.37507 27.8161 3.78397 27.8236 5.51742L27.8239 5.53486C27.8211 7.2721 26.407 8.68478 24.6691 8.68478C22.9319 8.68478 21.5182 7.27351 21.5142 5.53731L21.5143 5.53293ZM36.8125 31.3194H30.07C29.5239 28.8404 27.306 26.9771 24.6691 26.9771C22.0307 26.9771 19.8137 28.8401 19.268 31.3194H1.1875C0.531703 31.3194 0 31.851 0 32.5069C0 33.1628 0.531703 33.6944 1.1875 33.6944H19.2676C19.8125 36.1747 22.0275 38.0368 24.6691 38.0368C27.3106 38.0368 29.5256 36.1747 30.0705 33.6944H36.8125C37.4683 33.6944 38 33.1628 38 32.5069C38 31.851 37.4683 31.3194 36.8125 31.3194ZM24.6691 35.6618C22.9319 35.6618 21.5182 34.2505 21.5142 32.5143L21.5143 32.51L21.5144 32.4973C21.5196 30.763 22.9347 29.3521 24.6691 29.3521C26.4009 29.3521 27.8161 30.761 27.8236 32.4944L27.8239 32.5118C27.8213 34.2493 26.4071 35.6618 24.6691 35.6618ZM36.8125 17.8309H18.7324C18.1875 15.3506 15.9725 13.4886 13.3309 13.4886C10.6894 13.4886 8.47437 15.3506 7.92946 17.8309H1.1875C0.531703 17.8309 0 18.3626 0 19.0184C0 19.6743 0.531703 20.2059 1.1875 20.2059H7.93005C8.47608 22.6849 10.694 24.5482 13.3309 24.5482C15.9693 24.5482 18.1863 22.6852 18.732 20.2059H36.8125C37.4683 20.2059 38 19.6743 38 19.0184C38 18.3626 37.4683 17.8309 36.8125 17.8309ZM16.4857 19.0153L16.4856 19.0281C16.4804 20.7623 15.0653 22.1731 13.3309 22.1731C11.5991 22.1731 10.1839 20.7643 10.1764 19.0309L10.1761 19.0135C10.1787 17.276 11.593 15.8636 13.3309 15.8636C15.0681 15.8636 16.4818 17.2748 16.4858 19.0111L16.4857 19.0153Z" fill="#ED6B21"/>
</svg>
