<svg width="91" height="71" viewBox="0 0 91 71" fill="none" xmlns="http://www.w3.org/2000/svg">
<path fill-rule="evenodd" clip-rule="evenodd" d="M83.6292 70.5795H6.71266C3.01429 70.5795 0 67.5652 0 63.8673V6.71268C0 3.0143 3.01429 0 6.71266 0H83.6292C87.3276 0 90.3419 3.0143 90.3419 6.71268V63.8673C90.3419 67.5726 87.3276 70.58 83.6292 70.58V70.5795ZM6.71266 2.11737C4.17595 2.11737 2.11736 4.17596 2.11736 6.71268V63.8673C2.11736 66.404 4.17595 68.4626 6.71266 68.4626H83.6292C86.1659 68.4626 88.2245 66.404 88.2245 63.8679V6.71321C88.2245 4.17649 86.1659 2.1179 83.6292 2.1179H6.71266V2.11737Z" fill="white"/>
<path fill-rule="evenodd" clip-rule="evenodd" d="M13.2929 55.7869C13.2632 55.7869 13.241 55.7869 13.2119 55.7869C10.1827 55.5592 8.05056 54.4267 6.8746 52.42C3.8529 47.2809 8.09504 38.0394 10.9034 31.915C11.4916 30.6358 11.9988 29.5255 12.3075 28.7387C12.4621 28.3267 12.8587 28.062 13.2929 28.062C13.7339 28.062 14.1236 28.3342 14.2782 28.7387C14.5869 29.5329 15.0941 30.6427 15.6755 31.9224C18.477 38.0468 22.7117 47.3026 19.6894 52.4274C18.5135 54.4272 16.3882 55.5518 13.3665 55.78C13.3442 55.7874 13.3151 55.7874 13.2929 55.7874V55.7869ZM13.2929 31.7826C13.1457 32.1061 12.9916 32.4445 12.8296 32.7976C10.3665 38.1718 6.235 47.1559 8.69758 51.3393C9.50661 52.7138 11.0061 53.4715 13.2929 53.6626C15.5648 53.4715 17.0643 52.7138 17.8728 51.3467C20.3359 47.1707 16.2187 38.1718 13.7556 32.7976C13.5941 32.4519 13.4395 32.1136 13.2929 31.7826Z" fill="white"/>
<path fill-rule="evenodd" clip-rule="evenodd" d="M13.2777 70.5787C12.6895 70.5787 12.2188 70.1012 12.2188 69.5198L12.2193 40.494C12.2193 39.9132 12.69 39.4351 13.2782 39.4351C13.8665 39.4351 14.3372 39.9126 14.3372 40.494V69.5198C14.3372 70.1075 13.8591 70.5782 13.2782 70.5782L13.2777 70.5787Z" fill="white"/>
<path fill-rule="evenodd" clip-rule="evenodd" d="M13.2779 49.8451C13.0429 49.8451 12.8072 49.764 12.6087 49.602L9.24865 46.8525C8.79277 46.485 8.72659 45.8158 9.10145 45.3599C9.46891 44.9114 10.1382 44.8452 10.594 45.2127L13.9541 47.9622C14.4099 48.3297 14.4761 48.999 14.1013 49.4548C13.8884 49.7127 13.5792 49.8445 13.2779 49.8445V49.8451Z" fill="white"/>
<path fill-rule="evenodd" clip-rule="evenodd" d="M13.2819 53.6905C13.0171 53.6905 12.7524 53.5878 12.5464 53.3887C12.1276 52.9847 12.1128 52.3155 12.5247 51.8887L15.3701 48.948C15.7746 48.5287 16.4508 48.5213 16.8701 48.9263C17.2889 49.3303 17.3037 49.9996 16.8918 50.4263L14.0464 53.367C13.833 53.5804 13.554 53.6905 13.2819 53.6905Z" fill="white"/>
<path fill-rule="evenodd" clip-rule="evenodd" d="M52.4019 70.5784C51.9752 70.5784 51.5786 70.3211 51.4166 69.9017L45.5055 54.7127C45.5055 54.7053 45.4981 54.6979 45.4981 54.691L37.5581 34.3041L20.8983 69.4247C20.6484 69.9542 20.0162 70.1749 19.4867 69.9245C18.9572 69.6746 18.7365 69.0424 18.9869 68.5129L36.6978 31.1792C36.8815 30.7969 37.2712 30.5618 37.69 30.5761C38.1093 30.5909 38.4842 30.8557 38.6383 31.2528L46.6079 51.7132L61.3558 22.1802C61.5396 21.8128 61.951 21.5846 62.3189 21.592C62.7309 21.5994 63.0904 21.8419 63.2672 22.2093L84.6097 69.0784C84.8528 69.6079 84.6172 70.2401 84.0877 70.4826C83.5582 70.7256 82.926 70.49 82.6835 69.9605L62.2596 25.113L47.6435 54.3738L53.3931 69.1366C53.6059 69.6804 53.3343 70.2983 52.79 70.5043C52.6582 70.5556 52.5258 70.5779 52.4009 70.5779L52.4019 70.5784Z" fill="white"/>
<path fill-rule="evenodd" clip-rule="evenodd" d="M35.918 24.6299C30.242 24.6299 25.625 20.0128 25.625 14.3374C25.625 8.66145 30.242 4.04443 35.918 4.04443C41.5934 4.04443 46.2104 8.66145 46.2104 14.3374C46.2104 20.0128 41.5934 24.6299 35.918 24.6299ZM35.918 6.15386C31.4111 6.15386 27.7424 9.82259 27.7424 14.3295C27.7424 18.8358 31.4111 22.5051 35.918 22.5051C40.4243 22.5051 44.0936 18.8364 44.0936 14.3295C44.0936 9.82259 40.4248 6.15386 35.918 6.15386Z" fill="white"/>
<path fill-rule="evenodd" clip-rule="evenodd" d="M55.2944 37.7159C54.846 37.7159 54.4266 37.4295 54.2874 36.9805C54.1111 36.4219 54.4197 35.8262 54.9783 35.6499C58.0292 34.6794 60.1026 34.9589 61.9335 35.2014C63.7713 35.4445 65.3518 35.6573 67.8959 34.7456C68.4471 34.547 69.0501 34.834 69.2487 35.3852C69.4472 35.9363 69.1603 36.5394 68.6091 36.738C65.58 37.826 63.5876 37.5613 61.6539 37.2966C59.8892 37.0615 58.2203 36.8407 55.6248 37.664C55.5073 37.7005 55.4046 37.7154 55.2944 37.7154V37.7159Z" fill="white"/>
<path fill-rule="evenodd" clip-rule="evenodd" d="M31.8256 44.9426C31.4063 44.9426 31.0171 44.6927 30.8477 44.2882C30.6269 43.7444 30.8842 43.1265 31.4211 42.9063C33.8768 41.8992 35.5896 42.156 37.097 42.3842C38.5086 42.5971 39.7216 42.7882 41.5891 41.9209C42.1186 41.671 42.7507 41.9061 42.9932 42.4356C43.2432 42.965 43.0081 43.5972 42.4786 43.8397C40.0377 44.9718 38.3026 44.7144 36.7735 44.4793C35.3545 44.2665 34.1341 44.0754 32.2227 44.8616C32.0977 44.9135 31.9654 44.9426 31.8256 44.9426Z" fill="white"/>
</svg>
