<svg width="206" height="61" viewBox="0 0 206 61" fill="none" xmlns="http://www.w3.org/2000/svg">
<circle cx="30.5" cy="30.5" r="28.5" fill="#ED6B21" stroke="#252525" stroke-width="4"/>
<circle cx="30" cy="30" r="3" fill="#252525"/>
<line x1="24" y1="30" x2="4" y2="30" stroke="#252525" stroke-width="4"/>
<path d="M27 30L18.75 38.6603L18.75 21.3397L27 30Z" fill="#252525"/>
<line x1="36" y1="30" x2="58" y2="30" stroke="#252525" stroke-width="4"/>
<path d="M33 30L41.25 21.3397L41.25 38.6603L33 30Z" fill="#252525"/>
<line x1="30" y1="24" x2="30" y2="2" stroke="#252525" stroke-width="4"/>
<path d="M30 27L21.3397 18.75L38.6603 18.75L30 27Z" fill="#252525"/>
<line x1="30" y1="36" x2="30" y2="58" stroke="#252525" stroke-width="4"/>
<path d="M30 33L38.6603 41.25L21.3397 41.25L30 33Z" fill="#252525"/>
<line x1="23" y1="30" x2="37" y2="30" stroke="#252525" stroke-width="2"/>
<line x1="30" y1="23" x2="30" y2="37" stroke="#252525" stroke-width="2"/>
<path d="M78.375 24.3636V36H76.625V25.8636H71.1477V36H69.3977V24.3636H78.375ZM80.9233 39.2727V27.2727H82.5824V28.6875H82.7244C82.8229 28.5057 82.965 28.2955 83.1506 28.0568C83.3362 27.8182 83.5938 27.6098 83.9233 27.4318C84.2528 27.25 84.6884 27.1591 85.2301 27.1591C85.9347 27.1591 86.5634 27.3371 87.1165 27.6932C87.6695 28.0492 88.1032 28.5625 88.4176 29.233C88.7358 29.9034 88.8949 30.7102 88.8949 31.6534C88.8949 32.5966 88.7377 33.4053 88.4233 34.0795C88.1089 34.75 87.6771 35.267 87.1278 35.6307C86.5786 35.9905 85.9517 36.1705 85.2472 36.1705C84.7169 36.1705 84.2831 36.0814 83.946 35.9034C83.6127 35.7254 83.3513 35.517 83.1619 35.2784C82.9725 35.0398 82.8267 34.8277 82.7244 34.642H82.6222V39.2727H80.9233ZM82.5881 31.6364C82.5881 32.25 82.6771 32.7879 82.8551 33.25C83.0331 33.7121 83.2907 34.0739 83.6278 34.3352C83.965 34.5928 84.3778 34.7216 84.8665 34.7216C85.3741 34.7216 85.7983 34.5871 86.1392 34.3182C86.4801 34.0455 86.7377 33.6761 86.9119 33.2102C87.09 32.7443 87.179 32.2197 87.179 31.6364C87.179 31.0606 87.0919 30.5436 86.9176 30.0852C86.7472 29.6269 86.4896 29.2652 86.1449 29C85.804 28.7348 85.3778 28.6023 84.8665 28.6023C84.3741 28.6023 83.9574 28.7292 83.6165 28.983C83.2794 29.2367 83.0237 29.5909 82.8494 30.0455C82.6752 30.5 82.5881 31.0303 82.5881 31.6364ZM94.4744 36.1761C93.6563 36.1761 92.9422 35.9886 92.3324 35.6136C91.7225 35.2386 91.2491 34.714 90.9119 34.0398C90.5748 33.3655 90.4062 32.5777 90.4062 31.6761C90.4062 30.7708 90.5748 29.9792 90.9119 29.3011C91.2491 28.6231 91.7225 28.0966 92.3324 27.7216C92.9422 27.3466 93.6563 27.1591 94.4744 27.1591C95.2926 27.1591 96.0066 27.3466 96.6165 27.7216C97.2263 28.0966 97.6998 28.6231 98.0369 29.3011C98.3741 29.9792 98.5426 30.7708 98.5426 31.6761C98.5426 32.5777 98.3741 33.3655 98.0369 34.0398C97.6998 34.714 97.2263 35.2386 96.6165 35.6136C96.0066 35.9886 95.2926 36.1761 94.4744 36.1761ZM94.4801 34.75C95.0104 34.75 95.4498 34.6098 95.7983 34.3295C96.1468 34.0492 96.4044 33.6761 96.571 33.2102C96.7415 32.7443 96.8267 32.2311 96.8267 31.6705C96.8267 31.1136 96.7415 30.6023 96.571 30.1364C96.4044 29.6667 96.1468 29.2898 95.7983 29.0057C95.4498 28.7216 95.0104 28.5795 94.4801 28.5795C93.946 28.5795 93.5028 28.7216 93.1506 29.0057C92.8021 29.2898 92.5426 29.6667 92.3722 30.1364C92.2055 30.6023 92.1222 31.1136 92.1222 31.6705C92.1222 32.2311 92.2055 32.7443 92.3722 33.2102C92.5426 33.6761 92.8021 34.0492 93.1506 34.3295C93.5028 34.6098 93.946 34.75 94.4801 34.75ZM104.195 38.9716V24.3636H105.893V38.9716H104.195ZM104.195 36.1761C103.577 36.1761 103.015 36.0701 102.507 35.858C102 35.642 101.562 35.3352 101.195 34.9375C100.827 34.5398 100.543 34.0644 100.342 33.5114C100.145 32.9583 100.047 32.3466 100.047 31.6761C100.047 30.9981 100.145 30.3826 100.342 29.8295C100.543 29.2765 100.827 28.8011 101.195 28.4034C101.562 28.0057 102 27.6989 102.507 27.483C103.015 27.267 103.577 27.1591 104.195 27.1591H104.615V36.1761H104.195ZM104.195 34.7443H104.433V28.5909H104.195C103.786 28.5909 103.429 28.6742 103.126 28.8409C102.823 29.0038 102.571 29.2292 102.371 29.517C102.17 29.8011 102.018 30.1288 101.916 30.5C101.818 30.8712 101.768 31.2633 101.768 31.6761C101.768 32.2292 101.857 32.7386 102.036 33.2045C102.214 33.6667 102.482 34.0398 102.842 34.3239C103.202 34.6042 103.653 34.7443 104.195 34.7443ZM105.893 36.1761H105.467V27.1591H105.893C106.511 27.1591 107.073 27.267 107.581 27.483C108.089 27.6989 108.524 28.0057 108.888 28.4034C109.255 28.8011 109.537 29.2765 109.734 29.8295C109.935 30.3826 110.036 30.9981 110.036 31.6761C110.036 32.3466 109.935 32.9583 109.734 33.5114C109.537 34.0644 109.255 34.5398 108.888 34.9375C108.524 35.3352 108.089 35.642 107.581 35.858C107.073 36.0701 106.511 36.1761 105.893 36.1761ZM105.893 34.7443C106.303 34.7443 106.659 34.6648 106.962 34.5057C107.265 34.3428 107.517 34.1193 107.717 33.8352C107.918 33.5473 108.068 33.2197 108.166 32.8523C108.265 32.4811 108.314 32.089 108.314 31.6761C108.314 31.1269 108.225 30.6193 108.047 30.1534C107.873 29.6837 107.606 29.3068 107.246 29.0227C106.886 28.7348 106.435 28.5909 105.893 28.5909H105.649V34.7443H105.893ZM110.845 25.875V24.3636H119.851V25.875H116.22V36H114.47V25.875H110.845ZM124.2 36.1761C123.34 36.1761 122.6 35.9924 121.979 35.625C121.361 35.2538 120.884 34.733 120.547 34.0625C120.214 33.3883 120.047 32.5985 120.047 31.6932C120.047 30.7992 120.214 30.0114 120.547 29.3295C120.884 28.6477 121.354 28.1155 121.956 27.733C122.562 27.3504 123.27 27.1591 124.081 27.1591C124.573 27.1591 125.051 27.2405 125.513 27.4034C125.975 27.5663 126.39 27.822 126.757 28.1705C127.125 28.5189 127.414 28.9716 127.626 29.5284C127.839 30.0814 127.945 30.7538 127.945 31.5455V32.1477H121.007V30.875H126.28C126.28 30.428 126.189 30.0322 126.007 29.6875C125.825 29.339 125.57 29.0644 125.24 28.8636C124.914 28.6629 124.532 28.5625 124.092 28.5625C123.615 28.5625 123.198 28.6799 122.842 28.9148C122.49 29.1458 122.217 29.4489 122.024 29.8239C121.835 30.1951 121.74 30.5985 121.74 31.0341V32.0284C121.74 32.6117 121.842 33.108 122.047 33.517C122.255 33.9261 122.545 34.2386 122.916 34.4545C123.287 34.6667 123.721 34.7727 124.217 34.7727C124.539 34.7727 124.833 34.7273 125.098 34.6364C125.363 34.5417 125.592 34.4015 125.786 34.2159C125.979 34.0303 126.126 33.8011 126.229 33.5284L127.837 33.8182C127.708 34.2917 127.477 34.7064 127.143 35.0625C126.814 35.4148 126.399 35.6894 125.899 35.8864C125.403 36.0795 124.837 36.1761 124.2 36.1761ZM130.967 27.2727L132.893 30.6705L134.837 27.2727H136.695L133.973 31.6364L136.717 36H134.859L132.893 32.7386L130.933 36H129.07L131.786 31.6364L129.104 27.2727H130.967ZM146.081 29.5795V31.0682H141.212V29.5795H146.081ZM138.206 32.3068H139.99C140.089 33.072 140.342 33.6572 140.751 34.0625C141.164 34.4678 141.806 34.6705 142.678 34.6705C143.321 34.6705 143.852 34.5 144.268 34.1591C144.685 33.8144 144.994 33.3485 145.195 32.7614C145.399 32.1742 145.501 31.5152 145.501 30.7841V29.6023C145.501 28.8144 145.388 28.1288 145.161 27.5455C144.933 26.9621 144.602 26.5114 144.166 26.1932C143.734 25.875 143.206 25.7159 142.581 25.7159C142.017 25.7159 141.554 25.8125 141.195 26.0057C140.835 26.1989 140.558 26.4754 140.365 26.8352C140.176 27.1913 140.051 27.6212 139.99 28.125H138.2C138.276 27.375 138.484 26.7045 138.825 26.1136C139.17 25.5227 139.653 25.0568 140.274 24.7159C140.899 24.375 141.668 24.2045 142.581 24.2045C143.543 24.2045 144.375 24.428 145.075 24.875C145.78 25.3182 146.323 25.9432 146.706 26.75C147.089 27.5568 147.28 28.5038 147.28 29.5909V30.8011C147.28 31.8883 147.09 32.8333 146.712 33.6364C146.337 34.4394 145.804 35.0606 145.115 35.5C144.426 35.9394 143.613 36.1591 142.678 36.1591C141.742 36.1591 140.956 35.9924 140.32 35.6591C139.683 35.322 139.191 34.8636 138.842 34.2841C138.494 33.7008 138.282 33.0417 138.206 32.3068ZM149.33 36V27.2727H151.028V30.9318H151.847L154.727 27.2727H156.83L153.449 31.517L156.869 36H154.761L152.131 32.5114H151.028V36H149.33ZM161.506 36.1761C160.661 36.1761 159.934 35.9848 159.324 35.6023C158.718 35.2159 158.252 34.6837 157.926 34.0057C157.6 33.3277 157.438 32.5511 157.438 31.6761C157.438 30.7898 157.604 30.0076 157.938 29.3295C158.271 28.6477 158.741 28.1155 159.347 27.733C159.953 27.3504 160.667 27.1591 161.489 27.1591C162.152 27.1591 162.742 27.2822 163.261 27.5284C163.78 27.7708 164.199 28.1117 164.517 28.5511C164.839 28.9905 165.03 29.5038 165.091 30.0909H163.438C163.347 29.6818 163.138 29.3295 162.812 29.0341C162.491 28.7386 162.059 28.5909 161.517 28.5909C161.044 28.5909 160.629 28.7159 160.273 28.9659C159.92 29.2121 159.646 29.5644 159.449 30.0227C159.252 30.4773 159.153 31.0152 159.153 31.6364C159.153 32.2727 159.25 32.822 159.443 33.2841C159.636 33.7462 159.909 34.1042 160.261 34.358C160.617 34.6117 161.036 34.7386 161.517 34.7386C161.839 34.7386 162.131 34.6799 162.392 34.5625C162.657 34.4413 162.879 34.2689 163.057 34.0455C163.239 33.822 163.366 33.553 163.438 33.2386H165.091C165.03 33.803 164.847 34.3068 164.54 34.75C164.233 35.1932 163.822 35.5417 163.307 35.7955C162.795 36.0492 162.195 36.1761 161.506 36.1761ZM166.908 36V27.2727H174.027V36H172.362V28.7386H168.561V36H166.908ZM180.06 36.1761C179.2 36.1761 178.459 35.9924 177.838 35.625C177.221 35.2538 176.743 34.733 176.406 34.0625C176.073 33.3883 175.906 32.5985 175.906 31.6932C175.906 30.7992 176.073 30.0114 176.406 29.3295C176.743 28.6477 177.213 28.1155 177.815 27.733C178.421 27.3504 179.13 27.1591 179.94 27.1591C180.433 27.1591 180.91 27.2405 181.372 27.4034C181.834 27.5663 182.249 27.822 182.616 28.1705C182.984 28.5189 183.274 28.9716 183.486 29.5284C183.698 30.0814 183.804 30.7538 183.804 31.5455V32.1477H176.866V30.875H182.139C182.139 30.428 182.048 30.0322 181.866 29.6875C181.685 29.339 181.429 29.0644 181.099 28.8636C180.774 28.6629 180.391 28.5625 179.952 28.5625C179.474 28.5625 179.058 28.6799 178.702 28.9148C178.349 29.1458 178.077 29.4489 177.884 29.8239C177.694 30.1951 177.599 30.5985 177.599 31.0341V32.0284C177.599 32.6117 177.702 33.108 177.906 33.517C178.115 33.9261 178.404 34.2386 178.776 34.4545C179.147 34.6667 179.58 34.7727 180.077 34.7727C180.399 34.7727 180.692 34.7273 180.957 34.6364C181.223 34.5417 181.452 34.4015 181.645 34.2159C181.838 34.0303 181.986 33.8011 182.088 33.5284L183.696 33.8182C183.567 34.2917 183.336 34.7064 183.003 35.0625C182.673 35.4148 182.259 35.6894 181.759 35.8864C181.262 36.0795 180.696 36.1761 180.06 36.1761ZM185.689 39.2727V27.2727H187.348V28.6875H187.49C187.589 28.5057 187.731 28.2955 187.916 28.0568C188.102 27.8182 188.359 27.6098 188.689 27.4318C189.018 27.25 189.454 27.1591 189.996 27.1591C190.7 27.1591 191.329 27.3371 191.882 27.6932C192.435 28.0492 192.869 28.5625 193.183 29.233C193.501 29.9034 193.661 30.7102 193.661 31.6534C193.661 32.5966 193.503 33.4053 193.189 34.0795C192.875 34.75 192.443 35.267 191.893 35.6307C191.344 35.9905 190.717 36.1705 190.013 36.1705C189.482 36.1705 189.049 36.0814 188.712 35.9034C188.378 35.7254 188.117 35.517 187.928 35.2784C187.738 35.0398 187.592 34.8277 187.49 34.642H187.388V39.2727H185.689ZM187.354 31.6364C187.354 32.25 187.443 32.7879 187.621 33.25C187.799 33.7121 188.056 34.0739 188.393 34.3352C188.731 34.5928 189.143 34.7216 189.632 34.7216C190.14 34.7216 190.564 34.5871 190.905 34.3182C191.246 34.0455 191.503 33.6761 191.678 33.2102C191.856 32.7443 191.945 32.2197 191.945 31.6364C191.945 31.0606 191.857 30.5436 191.683 30.0852C191.513 29.6269 191.255 29.2652 190.911 29C190.57 28.7348 190.143 28.6023 189.632 28.6023C189.14 28.6023 188.723 28.7292 188.382 28.983C188.045 29.2367 187.789 29.5909 187.615 30.0455C187.441 30.5 187.354 31.0303 187.354 31.6364ZM194.513 28.7386V27.2727H201.876V28.7386H199.03V36H197.371V28.7386H194.513Z" fill="white"/>
</svg>
