<svg width="59" height="80" viewBox="0 0 59 80" fill="none" xmlns="http://www.w3.org/2000/svg">
<path d="M29.1233 0C13.0631 0 0 13.0658 0 29.1233C0 44.4951 25.9515 77.055 27.0556 78.4344C27.5586 79.0645 28.3158 79.4272 29.1233 79.4272C29.9255 79.4272 30.6854 79.0645 31.1858 78.437C32.2951 77.0576 58.2493 44.4951 58.2493 29.1233C58.2493 13.0684 45.1808 0 29.1233 0V0ZM29.1233 72.4853C20.9423 61.8579 5.29515 39.3932 5.29515 29.1233C5.29515 15.986 15.9834 5.29515 29.1233 5.29515C42.2606 5.29515 52.9541 15.986 52.9541 29.1233C52.9541 39.3932 37.3017 61.8605 29.1233 72.4853V72.4853Z" fill="#ED6B21"/>
<path d="M29.1233 12.5762C21.4559 12.5762 15.2235 18.8112 15.2235 26.4759C15.2235 34.1407 21.4559 40.3757 29.1233 40.3757C36.7906 40.3757 43.0257 34.1407 43.0257 26.4759C43.0257 18.8112 36.788 12.5762 29.1233 12.5762ZM29.1233 35.0805C24.3762 35.0805 20.5187 31.2204 20.5187 26.4759C20.5187 21.7315 24.3762 17.8713 29.1233 17.8713C33.8677 17.8713 37.7305 21.7315 37.7305 26.4759C37.7305 31.2204 33.8677 35.0805 29.1233 35.0805Z" fill="#ED6B21"/>
</svg>
