<svg width="70" height="70" viewBox="0 0 70 70" fill="none" xmlns="http://www.w3.org/2000/svg">
<path d="M37.0813 11.7567C37.717 12.3924 37.717 13.4229 37.0813 14.0586C36.763 14.3769 36.3471 14.5356 35.9303 14.5356C35.5136 14.5356 35.0977 14.3769 34.7794 14.0586C29.0655 8.34546 19.7717 8.34546 14.0586 14.0586C13.4229 14.6943 12.3924 14.6943 11.7567 14.0586C11.121 13.4229 11.121 12.3924 11.7567 11.7567C18.738 4.77465 30.0992 4.77465 37.0813 11.7567ZM70 63.4884C70 65.2278 69.3228 66.863 68.0921 68.0921C66.863 69.3228 65.2278 70 63.4884 70C61.749 70 60.1137 69.3228 58.8847 68.0921L41.7916 50.9991C41.1559 50.3634 41.1559 49.3329 41.7916 48.6972L44.0935 46.3953L40.4836 42.7855C36.1859 46.5484 30.5664 48.8372 24.4186 48.8372C10.9542 48.8372 0 37.883 0 24.4186C0 10.9542 10.9542 0 24.4186 0C37.883 0 48.8372 10.9542 48.8372 24.4186C48.8372 30.5664 46.5484 36.1859 42.7855 40.4836L46.3953 44.0935L48.6972 41.7916C49.3329 41.1559 50.3634 41.1559 50.9991 41.7916L68.0921 58.8847C69.3228 60.1137 70 61.749 70 63.4884ZM45.5814 24.4186C45.5814 12.7498 36.0883 3.25581 24.4186 3.25581C12.749 3.25581 3.25581 12.7498 3.25581 24.4186C3.25581 36.0874 12.749 45.5814 24.4186 45.5814C36.0883 45.5814 45.5814 36.0874 45.5814 24.4186ZM66.7442 63.4884C66.7442 62.6191 66.4056 61.8019 65.7902 61.1865L49.8481 45.2444L45.2444 49.8481L61.1865 65.7902C62.4172 67.0209 64.5603 67.0209 65.7902 65.7902C66.4056 65.1749 66.7442 64.3577 66.7442 63.4884Z" fill="white"/>
</svg>
