<svg width="67" height="67" viewBox="0 0 67 67" fill="none" xmlns="http://www.w3.org/2000/svg">
<path d="M65.91 1.09005C64.4567 -0.36335 62.1002 -0.36335 60.6469 1.09005L33.5 28.2369L6.3532 1.09005C4.89983 -0.36335 2.54342 -0.36335 1.09005 1.09005C-0.363351 2.54341 -0.363351 4.89982 1.09005 6.35319L28.2369 33.5L1.09013 60.6466C-0.363276 62.1002 -0.363276 64.4564 1.09013 65.91C2.54349 67.3633 4.89991 67.3633 6.35327 65.91L33.5 38.7631L60.6469 65.91C62.1002 67.3633 64.4567 67.3633 65.91 65.91C67.3633 64.4564 67.3633 62.1002 65.91 60.6469L38.7631 33.5L65.91 6.35319C67.3633 4.89982 67.3633 2.54341 65.91 1.09005Z" fill="white"/>
</svg>
