<svg width="134" height="176" viewBox="0 0 134 176" fill="none" xmlns="http://www.w3.org/2000/svg">
<path d="M66.997 0C30.0512 0 0 28.952 0 64.5333C0 98.5952 59.7004 170.743 62.2402 173.8C63.3974 175.196 65.1393 176 66.997 176C68.8424 176 70.5904 175.196 71.7416 173.806C74.2935 170.749 134 98.5952 134 64.5333C134 28.9579 103.937 0 66.997 0V0ZM66.997 160.618C48.1769 137.069 12.1813 87.2901 12.1813 64.5333C12.1813 35.4229 36.7691 11.7333 66.997 11.7333C97.2187 11.7333 121.819 35.4229 121.819 64.5333C121.819 87.2901 85.8109 137.075 66.997 160.618V160.618Z" fill="#ED6B21"/>
<circle cx="66.9999" cy="66" r="42" fill="#ED6B21" stroke="#252525" stroke-width="4"/>
<line x1="77.4445" y1="65.7778" x2="110.037" y2="65.7778" stroke="#252525" stroke-width="4"/>
<path d="M72.9999 65.8151L85.2222 52.9851L85.2222 78.6451L72.9999 65.8151Z" fill="#252525"/>
<line x1="66.7776" y1="55.5927" x2="66.7776" y2="23.0001" stroke="#252525" stroke-width="4"/>
<path d="M66.8148 60.0372L53.9848 47.815L79.6448 47.815L66.8148 60.0372Z" fill="#252525"/>
<line x1="56.5926" y1="65.8525" x2="24" y2="65.8525" stroke="#252525" stroke-width="4"/>
<path d="M61.0372 65.8153L48.815 78.6453L48.815 52.9853L61.0372 65.8153Z" fill="#252525"/>
<line x1="66.8521" y1="76.4449" x2="66.8521" y2="109.038" stroke="#252525" stroke-width="4"/>
<path d="M66.8148 72.0004L79.6448 84.2226H53.9848L66.8148 72.0004Z" fill="#252525"/>
<line x1="55.9999" y1="66.0001" x2="77.9999" y2="66.0001" stroke="#252525" stroke-width="2"/>
<line x1="66.9999" y1="55.0001" x2="66.9999" y2="77.0001" stroke="#252525" stroke-width="2"/>
<circle cx="67" cy="66.0002" r="5" fill="#252525"/>
</svg>
